/* XPM */
static char *_9bfbb6b94f74f63a07cc10c75917c24ZibJuZupq5eJUL6D[] = {
/* columns rows colors chars-per-pixel */
"64 64 12 1 ",
"  c #030000",
". c #020100",
"X c #020001",
"o c #030200",
"O c #030102",
"+ c #040000",
"@ c #050000",
"# c #050100",
"$ c #040001",
"% c #060000",
"& c #070101",
"* c #050102",
/* pixels */
"################################# # # # # # # # # # # # # # # # ",
"################################ # # # # # # # # # # # # # # # #",
"################################# # # # # # # # # # # # # # # # ",
"################################ # # # # # # # # # # # # # # # #",
"###&#&#&#&#&#&#&&#&#&#&#&#### # # # # # # # # # # # # # # # # # ",
"&#&#&#&#&#&#&#&##&#&#&#&#&## #   # # # # # # # # # # # # # # # #",
"#&#&#&#&#&#&#&#&&#&#&#&#&&#### ## # # # # # # # # # # # # # # # ",
"&#&#&#&#&#&#&#&##&#&#&#&#&&#  #  # # # # # # # # # # # # # # # #",
"#&#&#&#&#&#&#&#&&#&#&#&#&### # ## # # # # # # # # # # # # # # # ",
"&#&#&#&#&#&#&#&##&#&#&#&#&&##### # # # # # # # # # # # # # # # #",
"#&#&#&#&#&#&#&#&&#&#&#&#&######## # # # # # # # # # # # # # # # ",
"&#&#&#&#&#&#&#&##&#&#&#&#&###### # # # # # # # # # # # # # # # #",
"#&#&#&#&#&#&#&#&&#&#&#&#&#&##&#&# # # # # # # # # # # # # # # # ",
"&#&#&#&#&#&#&#&##&#&#&#&#&#&&#&# # # # # # # # # # # # # # # # #",
"#&#&#&#&#&#&#&#&&#&#&#&#&#&##&#&# # # # # # # # # # # # # # # # ",
"&#&#&#&#&#&#&#&##&#&#&#&#&#&&#&# # # # # # # # # # # # # # # # #",
"#&#&#&#&#&#&#&#&#&#&#&#&#&#&#&#&# # # # # # # # # # # # # # # # ",
"&#&#&#&#&#&#&#&#&#&#&#&#&#&#&#&# # # # # # # # # # # # # # # # #",
"#&#&#&#&#&#&#&#&#&#&#&#&#&#&#&#&# # # # # # # # # # # # # # # # ",
"&#&#&#&#&#&#&#&#&#&#&#&#&#&#&#&# # # # # # # # # # # # # # # # #",
"#&#&#&#&#&#&#&#&#&#&#&#&#&#&#&#&# # # # # # # # # #O#O#O#O#O#O#O",
"&#&#&#&#&#&#&#&#&#&#&#&#&#&#&#&# # # # # # # # # #O#O#O#O#O#O#O#",
"#&#&#&#&#&#&#&#&#&#&#&#&#&#&#&#&# # # # # # # # #O#O#O#O#O#O#O#O",
"&#&#&#&#&#&#&#&#&#&#&#&#&#&#&#&# # # # # # # # #O#O#O#O#O#O#O#O#",
"#&#&#&#&#&#&#&#&#&#&#&#&#&#&#&#&# # # # # # # # #O#O#O#O#O#O#O#O",
"&#&#&#&#&#&#&#&#&#&#&#&#&#&#&#&# # # # # # # # #O#O#O#O#O#O#O#O#",
"#&#&#&#&#&#&#&#&#&#&#&#&#&#&#&#&# # # # # # # # #O#O#O#O#O#O#O#O",
"&#&#&#&#&#&#&#&#&#&#&#&#&#&#&#&# # # # # # # # #O#O#O#O#O#O#O#O#",
"#&#&#&#&#&#&#&#&#&#&#&#&#&#&#&#&# # # # # # # # #O#O#O#O#O#O#O#O",
"&#&#&#&#&#&#&#&#&#&#&#&#&#&#&#&# # # # # # # # #O#O#O#O#O#O#O#O#",
"#&#&#&#&#&#&#&#&#&#&#&#&#&#&#&#&# # # # # # # # #O#O#O#O#O#O#O#O",
"&#&#&#&#&#&#&#&#&#&#&#&#&#&#&#&# # # # # # # # #O#O#O#O#O#O#O#O#",
"#&#&#&#&#&#&#&#&#&#&#&#&#&#&#&#&# # # # # # # # #O#O#O#O#O#O#O#O",
"&#&#&#&#&#&#&#&#&#&#&#&#&#&#&#&# # # # # # # # #O#O#O#O#O#O#O#O#",
"#&#&#&#&#&#&#&#&#&#&#&###&#&#&*&# # # # # # # # #O#O#O#O#O#O#O#O",
"&#&#&#&#&#&#&#&#&#&#&###&#&#&#** # # # # # # # #O#O#O#O#O#O#O#O#",
"############################****#O#O#O#O#O#O#O#O#O#O#O#O#O#O#O#O",
"############################****O#O#O#O#O#O#O#O#O#O#O#O#O#O#O#O#",
"############################....#O#O#O#O#O#O#O#O#O#O#O#O#O#O#O#O",
"############################....O#O#O#O#O#O#O#O#O#O#O#O#O#O#O#O#",
"######################## .......#O#O#O#O#O#O#O#O#O#O#O#O#O#O#O#O",
"########################  ......O#O#O#O#O#O#O#O#O#O#O#O#O#O#O#O#",
"########################    ....#O#O#O#O#O#O#O#O#O#O#O#O#O#O#O#O",
"########################    ....O#O#O#O#O#O#O#O#O#O#O#O#O#O#O#O#",
"######################## # # # ##O#O#O#O#O#O#O#O#O#O#O#O#O#O#O#O",
"######################### # # # O#O#O#O#O#O#O#O#O#O#O#O#O#O#O#O#",
"######################## # # # ##O#O#O#O#O#O#O#O#O#O#O#O#O#O#O#O",
"# # ##################### # # # O#O#O#O#O#O#O#O#O#O#O#O#O#O#O#O#",
"    ..  ******############## # ##O#O#O#O#O#O#O#O#O#O#O#O#O#O#O#O",
"  .     ******############# # # O#O#O#O#O#O#O#O#O#O#O#O#O#O#O#O#",
"....   #****#######&#### # # # ##O#O#O#O#O#O#O#O#O#O#O#O#O#O#O#O",
"....  # ****#######O##### # # # O#O#O#O#O#O#O#O#O#O#O#O#O#O#O#O#",
".. ... #########O&O&O&O&O#O#O#O##O#O#O#O#O#O#O#O# # # # # # # # ",
"..  ..# ########OO&O&O&O#O#O#O#OO#O#O#O#O#O#O#O# # # # # # # # #",
" # # # #########OOOOO&OOO#O#O#O##O#O#O#O#O#O#O#O# # # # # # # # ",
"  #   #  # ######OOOOOO##O#O#O#OO#O#O#O#O#O#O#O# # # # # # # # #",
" # # # ## # #   ......#O#O#O#O#O#O#O#O#O#O#O#O#O # # # ## # # # ",
"######## # # #  ......O O#O#O#O#O#O#O#O#O#O#O#O## # # #  # # # #",
"######### # #    .   # ##O#O#O#O#O#O#O#O#O#O#O#O # # # ## # # # ",
"######## # # #        # O#O#O#O#O#O#O#O#O#O#O#O## # # #  # # # #",
"######### # # # #O#O#O#O#O#O#O#O#O#O#O#O#O#O#O#O    .. ## # # # ",
"######## # # # #O#O#O#O#O#O#O#O#O#O#O#O#O#O#O#O#  . ..   # # # #",
"######### # # # #O#O#O#O#O#O#O#O#O#O#O#O#O#O#O O......  # #  ## ",
" # # # # # # # #O#O#O#O#O#O#O#O#O#O#O#O#O#O#O#O ....    ########"
};
