/* XPM */
static char *_6ff29e2d4ac4442c166c6394dabdf8084VRy14mbZ72Ylez[] = {
/* columns rows colors chars-per-pixel */
"64 64 226 2 ",
"   c #15141C",
".  c #19161E",
"X  c #1E1E1E",
"o  c #24251F",
"O  c #323A1C",
"+  c #171521",
"@  c #191622",
"#  c #1C1A25",
"$  c #1E1B2B",
"%  c #1D172B",
"&  c #211E25",
"*  c #211E2D",
"=  c #221D31",
"-  c #242324",
";  c #2C2D24",
":  c #24222D",
">  c #29262D",
",  c #2C2A2B",
"<  c #262823",
"1  c #2F3227",
"2  c #33332C",
"3  c #3B3A2D",
"4  c #373A26",
"5  c #262232",
"6  c #2A2534",
"7  c #2D2A33",
"8  c #2A263A",
"9  c #2D293C",
"0  c #272238",
"q  c #322D34",
"w  c #322D3B",
"e  c #343332",
"r  c #393433",
"t  c #3B3B33",
"y  c #34313A",
"u  c #3B343B",
"i  c #393938",
"p  c #302D28",
"a  c #443B3D",
"s  c #443D37",
"d  c #3B461B",
"f  c #3D4525",
"g  c #3F4137",
"h  c #47561B",
"j  c #556C15",
"k  c #5E7A18",
"l  c #5C770E",
"z  c #627D1B",
"x  c #607D16",
"c  c #44442E",
"v  c #454A2D",
"b  c #464B28",
"n  c #4C5528",
"m  c #545729",
"M  c #434335",
"N  c #454A34",
"B  c #44433B",
"V  c #49443C",
"C  c #4A4A36",
"Z  c #534D39",
"A  c #4D5334",
"S  c #4E523C",
"D  c #555A34",
"F  c #575839",
"G  c #66563E",
"H  c #66593C",
"J  c #695B3D",
"K  c #67583C",
"L  c #55622D",
"P  c #586A27",
"I  c #5B6635",
"U  c #5F7221",
"Y  c #636A2B",
"T  c #637D23",
"R  c #667A28",
"E  c #777A2D",
"W  c #646234",
"Q  c #6C6536",
"!  c #6D6A35",
"~  c #6D633B",
"^  c #6D6A3A",
"/  c #636938",
"(  c #726D36",
")  c #71653D",
"_  c #736B3B",
"`  c #6C7C34",
"'  c #677236",
"]  c #747334",
"[  c #76713A",
"{  c #7A743D",
"}  c #7D7C3C",
"|  c #797C34",
" . c #2F2A41",
".. c #322D44",
"X. c #342F48",
"o. c #353145",
"O. c #393541",
"+. c #3C3B43",
"@. c #35314A",
"#. c #39354D",
"$. c #3E3A4D",
"%. c #3A3651",
"&. c #443D48",
"*. c #4C4441",
"=. c #484846",
"-. c #564B42",
";. c #5A5643",
":. c #4E4C4F",
">. c #665642",
",. c #685743",
"<. c #655943",
"1. c #6A5945",
"2. c #6C5B49",
"3. c #635648",
"4. c #705F4B",
"5. c #5E6744",
"6. c #6E6143",
"7. c #6D684A",
"8. c #726542",
"9. c #756C42",
"0. c #72634A",
"q. c #756A4A",
"w. c #786E4B",
"e. c #7A7244",
"r. c #7B734A",
"t. c #7B7A45",
"y. c #6A6E46",
"u. c #807E3F",
"i. c #817D49",
"p. c #5F8113",
"a. c #759B0D",
"s. c #6B8C14",
"d. c #68851B",
"f. c #6E9114",
"g. c #769918",
"h. c #67860C",
"j. c #7CA30D",
"k. c #7FA80D",
"l. c #7EA31C",
"z. c #7CA311",
"x. c #6A8424",
"c. c #698428",
"v. c #778A29",
"b. c #7A9728",
"n. c #6C8232",
"m. c #7C8232",
"M. c #758933",
"N. c #7B9634",
"B. c #7EA122",
"V. c #7E804E",
"C. c #80A90D",
"Z. c #84AC14",
"A. c #85AB1B",
"S. c #85A81E",
"D. c #8CB51A",
"F. c #8CB515",
"G. c #93BB1D",
"H. c #94BB16",
"J. c #859B2C",
"K. c #86972B",
"L. c #838639",
"P. c #839D33",
"I. c #889637",
"U. c #929A3A",
"Y. c #8AAC21",
"T. c #86A626",
"R. c #93AD2B",
"E. c #91AA28",
"W. c #93B42A",
"Q. c #9ABD2A",
"!. c #96B826",
"~. c #97A637",
"^. c #9BB838",
"/. c #8CAB2F",
"(. c #A4BE25",
"). c #A4BB38",
"_. c #B6BC33",
"`. c #9CC917",
"'. c #99C41C",
"]. c #9ECA1A",
"[. c #97C219",
"{. c #A1CD1E",
"}. c #9CC524",
"|. c #9DC22A",
" X c #9DC922",
".X c #9DC236",
"XX c #A2CE23",
"oX c #AACD23",
"OX c #A1C52B",
"+X c #A3CC29",
"@X c #A0C527",
"#X c #B8CB26",
"$X c #A5D124",
"%X c #A6D129",
"&X c #A9D42C",
"*X c #ACD126",
"=X c #B7D22A",
"-X c #AACB3A",
";X c #A5C836",
":X c #B3C839",
">X c #ADD533",
",X c #AED833",
"<X c #ABD339",
"1X c #B5D733",
"2X c #B2DA35",
"3X c #B2D939",
"4X c #BCDB3B",
"5X c #B8D637",
"6X c #C8CA26",
"7X c #C3DC3D",
"8X c #CAD737",
"9X c #D3D83A",
"0X c #C7CB31",
"qX c #848547",
"wX c #939B46",
"eX c #B1B144",
"rX c #C5BF45",
"tX c #C6DE41",
"yX c #CCDD42",
"uX c #DADD45",
"iX c #C9C945",
"pX c #E3DF4A",
"aX c #D9E34A",
"sX c #CCE046",
"dX c #E5E24C",
"fX c #ECE652",
/* pixels */
"2.2.1.2.2.1.2.2.2.2.2.1.2.3.1.2.1.1.1.1.2.1.1.1.1.,.1.,.1.,.1.1.J 1.,.,.,.>.1.>.,.1.,.1.1.1.1.1.2.2.,.2.2.2.1.2.3.2.1.2.3.2.2.,.",
"1.2.1.2.1.2.2.3.2.1.1.2.,.2.1.1.1.2.1.1.2.1.1.1.1.1.,.1.,.1.,.1.,.,.,.,.,.1.,.,.1.,.1.,.1.1.1.1.1.1.1.3.3.1.2.1.2.2.2.1.2.2.2.2.",
"1.2.2.1.2.3.1.2.3.1.1.1.1.1.1.1.1.1.1.1.3.,.1.1.,.J 1.,.,.1.1.1.J ,.,.,.,.,.,.1.,.1.,.,.,.1.,.1.1.1.2.1.1.2.,.2.2.1.1.2.1.2.,.2.",
"2.1.2.1.2.2.1.2.2.1.1.1.2.2.1.1.1.1.1.1.1.1.,.,.1.1.1.1.J ,.J J 1.J J ,.,.G ,.>.,.,.1.,.,.,.1.,.1.1.1.1.1.3.2.1.2.2.2.1.2.1.2.2.",
"2.1.2.3.2.1.1.1.2.1.1.1.3.2.1.1.1.1.1.,.1.1.1.1.1.6.2.~ 8.6.1.) ) ,.,.G J G 1.G G ,.,.,.,.,.1.1.1.2.1.1.2.1.1.2.2.,.2.2.1.2.1.2.",
"2.2.2.2.2.1.3.2.3.2.1.1.1.1.2.3.,.1.,.1.J 1.~ 1.~ ) _ _ _ _ _ _ ) ) ) J J 1.J G ,.G ,.,.,.,.,.,.,.3.1.1.3.2.2.1.3.2.,.2.2.1.2.1.",
"3.2.1.1.3.1.1.1.1.1.1.1.3.1.,.,.1.1.1.1.1.~ ~ 8._ [ { { { [ ! ^ _ _ _ ^ ~ J J G G ,.G ,.,.,.,.,.1.,.1.3.2.1.1.1.2.,.2.3.2.2.2.1.",
"1.2.2.1.2.1.2.1.2.1.2.1.1.1.,.,.1.1.J 1.~ 8.) { e.{ ^ D N 3 v Y | m.] _ ( ^ ~ J J J ,.,.G 1.,.,.,.,.,.1.3.2.1.1.,.2.2.2.3.3.2.2.",
"2.2.2.1.1.1.,.2.1.1.3.1.1.,.,.1.1.J J 8.8._ { _ H C q = $ 2 R W.Q.R.K.m.] [ _ Q J J K G ,.J ,.,.2.,.,.,.,.2.3.2.2.2.2.2.2.2.2.2.",
"2.2.1.1.1.1.2.2.1.1.,.,.,.,.,.,.1.J ) ) _ ^ F c 4 e w  .: c.%X%XOX|.!.R.K.m.] ( Q ~ J J G G ,.,.,.,.,.,.,.,.2.,.2.,.,.2.,.2.2.,.",
"3.1.1.1.2.1.2.,.1.1.,.,.,.,.,.,.1.~ ) _ F 3 2 v b i w 8 ; W.*X%X%XXXXX@XQ.R.K.| ( ^ ~ J K G G G ,.,.2.3.,.,.,.2.3.2.2.3.2.2.2.,.",
"2.1.1.1.2.1.2.,.,.,.,.,.,.,.,.,.J ) [ H r : & 2 Y m r 0 r :X1X%X%X$X$X%XOXOXQ./.m.] ! Q ~ G G G ,.3.,.,.,.,.2.,.2.,.,.2.2.,.2.2.",
"2.1.1.3.1.2.,.1.,.1.,.,.,.,.,.J ~ ( ( D 2 p p b m Y s q s _.1X$XXX$X$X$X$XXXXX XR.m.E Q J H J K ,.,.,.,.,.,.2.2.,.2.2.,.3.2.2.,.",
"1.2.1.2.2.1.,.,.2.,.,.,.,.G G ) _ [ H b f P ~.iXiXE 4 6 s !.*X{. XXXXX$XXX$X$X X}.!.L.] ! Q J K ,.,.,.,.,.,.,.,.2.,.2.3.,.2.2.2.",
"1.1.1.3.1.1.1.,.,.,.,.G G J J u.[ ] E x.b.(.dXfXfXeXs % f Z.{.{.XXXX X$X X$XXX$XXXOXR.m.] Q J J >.,.,.,.,.,.,.3.,.2.2.2.,.2.2.2.",
"1.2.2.2.1.1.,.,.,.,.,.G G J J J { E D.!.(.9XfXfXfXuXE @ f z.{.{.].{.].XX{.$XXX$XXXXXOXK.E ! Q J >.,.,.,.,.,.,.2.,.,.,.2.2.,.3.2.",
"1.1.1.1.1.,.1.3.,.,.,.G G J Q u.u.C.D.(.6XpXpXfXdX7XT.1 d s.[.{. X].]. X].XXXX$X$X$X+X|.K.] ! ~ G G G ,.G ,.,.,.,.,.,.2.,.2.2.2.",
",.2.2.1.,.1.,.,.,.,.,.G G u.Q ( u.H.H.6X9XpXfXpX9X*XS.4 O h.H.].'.F.F.H.].{.{.$X$X%X%X+XE.| ( Q G G G ,.,.,.,.,.,.,.2.,.2.,.2.,.",
"3.,.2.1.,.,.,.,.,.,.,.J G ~ u.E H.{.#X6X9XdXpX9X=X{.G.b O l Z.H.k.z.j.j.Z.'.{.$X{.$XXX*X@XK.] ( G u.,.G ,.,.,.,.,.2.2.2.2.,.3.2.",
"2.2.,.2.2.,.,.,.,.,.G G G ) K E (.#X6X6X0XdX9X6X{.{.'.j o j a.j.k.k.z.a.z.Z.'.XX{.$X%X%X+XR.m.( G G ,.G ,.,.,.,.,.,.,.2.2.2.,.2.",
"2.2.2.,.,.,.,.,.G G G J Q ( Y E XX*X6X6X_.0X0XoX{.`.`.g.O d h.k.k.k.z.z.a.f.Z.'.[.XXXX%XXXQ.K.] u.G G G G G ,.,.,.,.,.2.,.2.,.2.",
",.,.,.2.,.,.,.,.G G G J ~ Q b Y '.6X6X9X_.(.$X].`.`.`.D.O o j a.k.k.Z.z.s.s.f.Z.G.[.$X%X%X|.E.| K G u.K G G G ,.,.,.2.,.2.3.,.2.",
"2.2.,.,.,.,.,.,.G G K J Q K s f.XX6X6X9X#XH.`.`.{.`.`.[.h o h a.Z.[.].H.s.k l s.Z.D. X%X%X@XW.m.u.Q K K G G G ,.3.,.,.2.2.3.2.,.",
",.3.,.,.,.,.,.3.G G K ~ Q m f S.$X#X6X8X=XF.`.`.`.].`.{.z - O f.`.].].G.s.p.k d.f.A.'.%X%XOXW.K.Q K K K G G ,.,.,.,.,.2.,.2.,.2.",
",.,.,.,.,.,.,.>.G G G G Q m 4 E.$X#X6X8X*X`.`.`.`.`.`.`.l.; - l '.].].[.s.x.k k d.l.G.$X%X X!.M.K u.u.G ,.G ,.,.,.,.,.,.2.,.2.3.",
",.2.2.,.,.,.>.>.G G G K ( s c F.{.oX6X=X{.`.`.`.`.`.`.{.G.f # d F.{. X'.f.p.k k p.b.D.%X&X%X/.' u.G G G G ,.,.,.2.,.,.2.2.2.,.2.",
"2.,.,.,.,.,.>.G G G K u.Q f m E.oX*X6X1X{.`.`.`.`.`.`.`.].U # < f.XX].'.g.k k T k f.D.+X&X+X/.L Q Q G G G ,.,.,.,.,.,.,.2.,.2.,.",
",.,.,.,.,.,.,.>.G G G K W c m H.{.*X=X=X{.{.].].].`.{.].{.b.< # n '.$X}.g.x.p.T x.f.A. X&X&XW.L Y u.u.G G G ,.,.,.,.,.2.,.2.,.2.",
",.,.,.,.,.,.,.>.G G K Q Y 4 m F.$XoX#X=X{.`.`.`.].{.].].].Y.f # 1 S.$XG.g.p.x.x.k x.l.$X&X&XK.s Q Q K K ,.,.,.,.,.,.,.,.2.,.2.2.",
"2.,.,.,.,.,.>.>.G G K Q Q 3 m F.$X{.=X*X{.].].{.{.{.].[.[.}.n # < T }.l.x.x.x.k x.d.l.%X&X%XR q Y u.u.K ,.,.,.,.,.,.,.2.2.3.2.,.",
",.,.,.,.,.,.>.>.G K K Q Q 4 m C.$X$X$X{.{.{.{.{.].'.D.C.D.OXP - > b b.g.x.T x.x.x.b.T.+X&X>XE q Y Q K K ,.,.,.,.2.3.,.,.2.2.2.3.",
",.,.,.,.,.,.>.>.G K K Q Q 3 Z u.{.$X{.{.{.{.{.{.[.F.l.l.D. XP - e e ' x.c.T x.T R g.A.%X*X;Xm p Q u.u.K ,.,.,.,.,.,.2.,.,.,.2.,.",
",.1.G 2.,.,.,.G J J ) ( ] c N Y [.$X$X{.{.{.XXXX}.A.l.l.D.}.n - g 9 C ' c.c.T R c.b.Y.%X,X/.N N | | _ 8.J 1.J 1.J 1.2.1.1.2.1.1.",
",.1.J J J J ) ) ~ ) ! ( | C r D T.$X$XXXXX{.XX X}.A.B.B.B.T.f - N 9 O.D c.n.R R M.B.!.,X;XI v n.I.} { _ 8.J 1.1.1.1.1.1.1.1.1.2.",
",.1.2.J 8.) ) _ _ _ ] ] u.m 7 Z b. X$X$X$X$X$X$X[.B.B.B.B.N.f @ g o.9 =.' n.' c.b.B.Y..Xn.A M.^.~.U.L.9.8.6.6.1.J ,.1.1.1.3.2.2.",
"1.J J 4.8._ [ u.L.L.E m.L.] , u Y }.$XXX$X$X$X$X+XY.B.N.B.N.1   7 +.o.O.;.` n.n.n.N.B.` A N.,X2X:X).~.} { ) 8.1.1.1.1.1.2.2.2.2.",
"1.J ) ) _ u.I.).OX).E.K.I.L.s 6 g b.%X+X%X X X&X&X|.B.N.N.I $   # y +.o.+.5.n.n.M.M.I g M.3X4X4XtX4X-XU.{ 9.8.2.1.1.1.2.1.2.3.2.",
"J 4.J i.u.I._.yXuX7X=X;XW./.L - o.D W.%X+X+X X&X&X|./.N.n.2   +   : O.@.@.+.5.5.I A i A -XtXsXtXtX4X:X^.I.e.8.6.4.1.1.1.1.2.1.2.",
"J 4.) u.u.).yXaXaXyX5X&X+XOXN.1 5 O.` |.W.W..X+X<X<X/.I t & . $ #   7 O.X.o.=.B y y y ' 4XtXtXtX4X3X<X;XwXe.9.8.2.2.2.1.1.1.2.2.",
"4.J ) i.U.5XaXaXaX7X5X5X,X+X;XD = 8 B / M.n.n.B.^.N.A i e . @ 5 y - . 9 X.@...8 9 y i 5.-X4X3X3X>X3X<X-X~.e.e.7.4.1.2.2.2.2.2.2.",
"J 8.) i.~.yXdXaXtX4X4X1X1X,X.XL + * 9 r N A A D A S N t :   $ u =.y . # ..@.o...9 e g g N.3X3X3X<X3X3X-X^.qXe.8.8.2.4.1.1.1.1.2.",
",.i.u.u._.7XaXaX4X2X1X2X-X/.f < # $ # : q e M B g g i q : # =.t.-.+.7 # 5 o.@.@...9 i S N.<X3X/.^.3X3X<X^.qXe.7.8.2.1.1.4.4.2.4.",
"1.4.u.u.).4XyXyX3X,X,X,X^.b - # r 7 $ = : 7 q , 7 7 7 5 # # ^ eX;.%.%.5 # 9 @.@. .5 7 y g P ` g N.-X.X-XeXV.r.q.8.-.u -.3.3.1.4.",
"4.) _ u.~.3X4X4X,X,X,X3XP.4 X $ y 7 : $ $ = * 5 $ $ $ #   # V wX7.:.$.o.# * o.@.0 2 I 9 5 X g 5.S I A I I.V.t.q.-.r : ..X.o.-.3.",
"2.8.{ { U.;X<X2X,X2X2X<XL o   # 6 5 * * = 0 # # * * * # +   : ;.V.:.:.%.0 % 9 @.* , y.y 5 # + D =.y e 2 A ;.y.;.S 2 5 X. . .9 &.",
"1.<.8.i.qXP.;X.Xb..XN.n o > # # # & = * 5 # o ^ g 5 : * @   $ w 7.7.$.%.X.$ * ..9 # =.+.9 :   , 5.+.7 7 7 * 2 I I , 8 ..9 8 6 ..",
"Z : s ^ t.' ` P 4 4 o - 7 7 : : * + & = &   4 eXN 7 7 5 $     7 :.y.:.%.%. .# 9 X.# : =.9 5 #   g =. .5 = + 7 ;.' A , 6 8 8 9 w ",
">     p D g < 4 v v v g e : 5 : = * # & #   1 U.+.7 e > * #   : o.:.:.%.%.@.5 5 X.9 + y @.0 $   @ o.X.9 $ # # 9 :.' M > = 6 8 9 ",
". . @ & s , p 3 r t g 2 e 7 5 5 = > , < &     D +.9 9 5 5 5   + 9 o.:.$.%.%.X.5 8 X.* * #. .= @   =  . .= = % * O.=.=. .0 # # & ",
"  @ * = 6 6 6 q g S S =.B 7 5 5 5 = r V q     e $...X.X...8 $   5 X.@.#.#.%.@. .9 ..6 @  .X.8 * + $ 9  ...= % = 9 y 8 8 5     + ",
"& % * * = = =  .....o.o...X.o.@.X.@.%.=.u #   # +.@.X.X... .0 # #  .....@.@.@.@...= * * *  . .= # > y 9 9 8 = : 7 7 6 q q .     ",
"* * @ * = 8 .. .w o.....@.@.@.@.X.#.X.#.o.:      .@.X.o. . .8 0 # 0 ....X.@.@.X.9 & *  .= = = % = 7 5 9 q 6 u &.u &.u a a 6 > X ",
"= 6 6 6 q q w u V a u q y o. . .8 6 5 5 w o.: . 0  ...o.w  .9 9 8 5 9 8  .X...X. .& * 8 8 = % * 5 7 6 *.q V 3.1.3.-.*.&.a &.-.>.",
",.,.3.1.>.>.,.1.7.2.G s e t e > . X 2 F t./ i - : w ..q w 6 9 9 w 9 7 $ : : # = = @ = = 0 8 = 6 q u a 3.*.2.0.4.4.1.4.3.2.4.1.4.",
"2.2.2.1.1.2.2.4.0.0.0.;.-.Z Z / A c 7.t.V.F B V -.*.w 7 6 7 q r e i e M y.t.F a s r &.a &.&.&.&.3.2.2.2.2.2.4.4.4.4.2.4.2.4.4.2.",
"2.2.2.2.2.2.4.2.6.2.0.0.q.q.q.r.t.w.w.r.e.w.w.q.w.6.V q u a >.7.;.` V.wXwXqXi.w.0.4.2.1.4.4.4.4.0.4.0.2.4.4.4.2.4.2.4.2.4.2.4.4.",
"2.2.2.2.2.2.2.2.2.4.4.4.0.0.0.0.0.q.q.q.q.q.q.q.q.0.1.3.4.q.w.r.t.qXqXqXr.r.w.q.4.4.4.4.4.4.4.4.2.4.2.4.2.4.2.2.2.4.2.4.2.2.2.4.",
"2.3.2.2.2.2.2.2.2.2.4.2.2.2.0.0.0.0.0.0.0.0.0.0.4.0.0.4.0.0.0.q.w.w.w.w.r.q.q.q.4.4.4.4.4.4.4.4.4.4.4.2.2.2.4.4.4.2.2.4.2.2.2.2.",
"2.2.2.2.2.2.2.2.2.2.2.2.2.4.2.0.4.0.4.4.0.0.4.4.4.4.4.4.4.4.0.0.0.7.0.q.q.0.0.0.4.4.4.4.4.2.4.2.2.2.4.4.2.2.4.4.4.4.2.2.4.2.4.2.",
"2.2.2.2.2.2.2.2.2.2.2.4.2.2.4.2.4.2.4.4.0.4.2.4.4.2.2.4.4.2.2.0.0.0.0.0.4.4.2.2.4.4.3.4.4.4.4.2.4.4.4.2.4.2.2.2.2.2.4.2.2.2.2.2.",
"2.1.2.2.1.2.2.2.2.2.2.2.2.2.2.2.2.2.2.2.2.2.2.2.4.4.2.4.2.2.2.2.4.0.2.2.0.2.0.2.4.4.4.2.4.4.2.2.2.2.4.2.2.2.2.2.2.2.2.2.2.2.2.2.",
"2.2.2.2.2.2.2.2.2.2.2.2.2.2.2.2.2.2.2.2.2.2.2.2.2.2.2.2.2.2.4.2.2.2.2.2.2.2.2.2.2.2.2.2.2.3.4.4.2.2.2.2.2.2.2.2.2.2.2.2.2.2.2.2.",
"2.2.2.2.2.2.2.2.2.2.1.2.2.1.2.2.2.2.2.2.2.2.2.2.2.2.2.2.2.2.2.2.2.2.2.2.2.2.2.2.2.2.2.2.2.2.2.2.2.3.2.2.3.2.2.2.2.2.2.2.2.3.2.2.",
"2.3.2.2.2.2.2.2.2.2.2.2.2.2.2.2.2.2.2.2.2.2.2.2.2.2.2.2.2.2.2.2.2.2.2.2.2.2.2.2.2.2.2.2.2.3.2.2.2.2.2.2.2.2.2.2.2.2.2.2.2.2.2.2."
};
