/* XPM */
static char *d3a16e1062fa4307fc1a76b4d5248226bbOPldLacOkcPzLy[] = {
/* columns rows colors chars-per-pixel */
"64 64 213 2 ",
"   c None",
".  c #16141C",
"X  c #18161E",
"o  c #19181E",
"O  c #2C321E",
"+  c #191721",
"@  c #1D1A23",
"#  c #1E1B2A",
"$  c #201E25",
"%  c #221E2C",
"&  c #231F30",
"*  c #242326",
"=  c #2B2D24",
"-  c #25222C",
";  c #2C2B2D",
":  c #2A262B",
">  c #302E2D",
",  c #2F3229",
"<  c #353B23",
"1  c #33342B",
"2  c #3A3B2C",
"3  c #333626",
"4  c #262232",
"5  c #292533",
"6  c #2D2933",
"7  c #2A263A",
"8  c #2E293C",
"9  c #272238",
"0  c #312C35",
"q  c #322D3B",
"w  c #343434",
"e  c #3B3B33",
"r  c #35323B",
"t  c #3C353C",
"y  c #3C3B3B",
"u  c #393734",
"i  c #403F33",
"p  c #423A3E",
"a  c #37411C",
"s  c #3F4921",
"d  c #3E422C",
"f  c #3D4037",
"g  c #404D19",
"h  c #4A5B19",
"j  c #5A6F1D",
"k  c #516518",
"l  c #5E7A18",
"z  c #5B750F",
"x  c #617E15",
"c  c #627D1C",
"v  c #43442B",
"b  c #494B2A",
"n  c #495329",
"m  c #56582D",
"M  c #434633",
"N  c #464A34",
"B  c #4B4C34",
"V  c #43443A",
"C  c #46493A",
"Z  c #494C3E",
"A  c #4C5338",
"S  c #535A32",
"D  c #545C3A",
"F  c #585A3E",
"G  c #525539",
"H  c #5D6C2C",
"J  c #576428",
"K  c #5E7025",
"L  c #5B6434",
"P  c #5B623A",
"I  c #5A6536",
"U  c #706D2E",
"Y  c #657E2B",
"T  c #697D2C",
"R  c #657827",
"E  c #686F3B",
"W  c #647234",
"Q  c #677833",
"!  c #697B34",
"~  c #6E7330",
"^  c #737531",
"/  c #707E38",
"(  c #2F2A40",
")  c #322D43",
"_  c #352F49",
"`  c #353144",
"'  c #383644",
"]  c #3D3A44",
"[  c #36314A",
"{  c #3A354B",
"}  c #3D394E",
"|  c #3A3550",
" . c #413D50",
".. c #413D4B",
"X. c #4A4847",
"o. c #514E50",
"O. c #5A574E",
"+. c #676849",
"@. c #737244",
"#. c #6F900F",
"$. c #65821C",
"%. c #6A8819",
"&. c #6F9114",
"*. c #789E13",
"=. c #73931C",
"-. c #779A19",
";. c #749A0C",
":. c #7CA40E",
">. c #7DA412",
",. c #7FA21C",
"<. c #668123",
"1. c #6C8426",
"2. c #6C8825",
"3. c #718C2B",
"4. c #758A27",
"5. c #759222",
"6. c #7B9722",
"7. c #7D9B25",
"8. c #7C972C",
"9. c #7A982B",
"0. c #6D8132",
"q. c #768C35",
"w. c #7D9432",
"e. c #779230",
"r. c #7FA122",
"t. c #758040",
"y. c #81AA0F",
"u. c #83AB12",
"i. c #82A919",
"p. c #85A91D",
"a. c #8BB415",
"s. c #8BB31A",
"d. c #8EB819",
"f. c #93BC1B",
"g. c #90B918",
"h. c #829929",
"j. c #869936",
"k. c #8AAC23",
"l. c #84A22C",
"z. c #88A628",
"x. c #8DB221",
"c. c #94BA23",
"v. c #99BC25",
"b. c #95B42A",
"n. c #96BB2A",
"m. c #9BBE29",
"M. c #95B722",
"N. c #88A535",
"B. c #96AA37",
"V. c #95B433",
"C. c #9BBC33",
"Z. c #91B038",
"A. c #90AA2A",
"S. c #A0BF21",
"D. c #A4BA3A",
"F. c #A9A33F",
"G. c #99C517",
"H. c #97C21B",
"J. c #9AC41C",
"K. c #9ECB1B",
"L. c #96C315",
"P. c #A1CC1E",
"I. c #9DC423",
"U. c #9FC922",
"Y. c #9DC328",
"T. c #9EC134",
"R. c #A0C523",
"E. c #A3CE23",
"W. c #A0C62B",
"Q. c #A3CB2B",
"!. c #AACC26",
"~. c #B2CE25",
"^. c #BBCE24",
"/. c #BAC92A",
"(. c #A5D125",
"). c #A6D129",
"_. c #A9D22D",
"`. c #ACD024",
"'. c #B5D12B",
"]. c #BAD32D",
"[. c #B1D026",
"{. c #A7C534",
"}. c #AACA39",
"|. c #A7C538",
" X c #B1CC38",
".X c #ADD536",
"XX c #AFD835",
"oX c #ADD23A",
"OX c #B3D534",
"+X c #B2DA35",
"@X c #B1D439",
"#X c #BDD53D",
"$X c #B5DC38",
"%X c #BCDB3B",
"&X c #B8D637",
"*X c #C0CB24",
"=X c #CACD2D",
"-X c #C4D32E",
";X c #C6CC34",
":X c #C2DC3D",
">X c #C7D539",
",X c #D1D133",
"<X c #8A9046",
"1X c #C9CB45",
"2X c #C4DD40",
"3X c #CEDE44",
"4X c #D8DA43",
"5X c #E2DE47",
"6X c #CEE044",
"7X c #D4E148",
"8X c #D8E249",
"9X c #E6E34D",
"0X c #ECE652",
/* pixels */
"                                                                                                                                ",
"                                                                                                                                ",
"                                                                                                                                ",
"                                                                                                                                ",
"                                                                                                                                ",
"                                                                                                                                ",
"                                                                                                                                ",
"                                                                                                                                ",
"                                                                                                                                ",
"                                                        5 ; S 3.A.                                                              ",
"                                                  v e 0 5 2 3.m.m.b.b.                                                          ",
"                                              2 2 v f 8 6 J !.).E.W.Y.m.                                                        ",
"                                            2 : , n m u 0 ~ ].).).).E.Q.I.Y.                                                    ",
"                                          b i v S ^ U M w ~ OXE.E.(.(.E.E.Q.Y.                                                  ",
"                                          H H j.1X5XF.b ; R R.E.P.E.E.E.(.(.Q.I.                                                ",
"                                        h.k.b.;X9X0X1X^ = j H.P.P.P.P.E.E.E.E.Q.Y.                                              ",
"                                        x.S./.,X9X9X>X7.< k a.K.K.K.J.U.P.E.(.(.E.W.                                            ",
"                                      v.R./.,X9X9X4X'.p.g h y.G.d.>.a.H.K.E.(.(.Q.W.                                            ",
"                                      v.~.*X,X4X,X%XP.s.h g #.y.>.:.:.>.H.K.E.E.).E.n.                                          ",
"                                    R v./.=X;X;X].P.P.g.R < z :.:.:.:.*.>.d.H.U.(.Q.Y.A.                                        ",
"                                    R S.*X=X/.!.P.P.K.K.&.< h ;.>.a.>.*.#.;.>.I.(.(.Y.b.                                        ",
"                                  v T f.*X=X/.S.L.K.G.K.i.s a #.L.G.d.&.$.%.-.d.E.(.W.b.                                        ",
"                                  v 4.R.^.-X/.G.L.K.K.K.d.k = l H.K.H.&.$.z %.,.I.(.Q.b.                                        ",
"                                  v 5.J.^.-X~.P.L.K.K.K.H.<.= h d.K.I.&.$.l $.-.I.).E.A.T                                       ",
"                                  b -.R.[.].`.P.G.P.K.K.H.r.< < -.U.I.-.$.l $.=.c.(.Q.Z.H                                       ",
"                                  b h.E.[.^.P.P.P.G.K.K.K.s.n * j I.H.-.$.$.$.2.x.).).8.S                                       ",
"                                  b -.R.`.~.(.P.P.K.P.K.H.I.K * s k.x.=.$.<.$.2.x.).Y.q.e                                       ",
"                                  v 4.R.(.(.P.K.K.K.G.g.a.c.2.= , <.9.2.<.<.<.=.x.).T.0.>                                       ",
"                                  i T f.!.E.P.P.K.K.d.,.i.c.3.= , A <.0.<.K 2.9.c.).T.W w                                       ",
"                                  u L k.E.E.P.P.P.G.s.,.,.k.K = w ' P <.<.Y <.r.n.Q.l.S S                                       ",
"                                  0 B 7.E.(.P.(.(.K.x.r.r.r.J = f ) Z W 0.<.3.r.b.Z.! W j.F.                                    ",
"                                  ; e ~ v.(.E.E.(.(.c.7.r.e.N @ w ` { D Q 0.q.e.8.Q 0.C. X{.D.                                  ",
"                         X X{.      6 N 7.Q.E.I.(.).Y.l.9.! 1 + % r ` V P Q 0.0.I W C.:X%X#X@X                                  ",
"                      >X3X3X&X!.W.w.2 q I b.W.Y.U._.T.A.! N @ + + 6 ` [ X.O.A f Z j.:X2X2X%X.X|.                                ",
"                    #X3X8X3X%XOX.Xm.L 6 y W 8.j.N.V.Z.! M ; + % - # 8 _ { r r q Z j.%X$X$X$XoX}.                                ",
"                    :X7X8X:X%X+XOXC.H : 4 u B S I H L N w $ $ t f - * ( ` ) 8 r f 0.oX$XoXoX.X}.                                ",
"                    #X7X6X$X+XXXC.W < : % % 6 e f f e w 6 * e @.X.` 4 4 ) [ ) 8 r I w.Z.N.}.oXoX                                ",
"                    @X2X:XXXXXXXw.< $ 6 5 % - 5 6 5 : : % @ M <XO...8 - 8 [ ( w y f A I E q.w.N.        6 8 `                   ",
"                    |.@X$X$XXXT.J * @ 6 5 % & & % $ & # + + 1 +.+.X.{ 4 4 ) 7 e f r % , X.A N A P     N 6 8 ) ) q               ",
"                    Z.V.V.N.8.H 3 * @ @ # & & $ 2 N 6 4 # X @ y +.o.} ( 4 7 7 > f r % @ f X.q 6 0 6 D D 1 8 8 8 8 )             ",
"              $ +     H H n b , ; 4 % # @ % # + m E 0 6 - + + 7 o.O.} [ 9 9 8 4 0 ' 5 @ $ y ` 4 # % C D M 0 6 8 8 q q           ",
"            @ + $ : > , 2 i d 2 w 4 4 4 * * @ o v F q 6 5 % + $ r o. .| _ 6 8 7 4 8 ( & + & ( ( & # 6 C Z r 4 % 4 9 q t         ",
"            @ @ % % : 6 1 e V f w 5 5 4 6 w ; o o r ) ) 8 7 $ + 7 { } | | ( 8 8 4 7 ( 9 @ @ 7 ( 9 & % q y r 5 @ X @ 4 0         ",
"            $ @ % & & 7 q ' ..] ` q ) ( ) ..r $ . 5 [ _ _ ( 9 # 4 ( [ [ [ [ ( 4 % & 7 ( % # 6 8 ( & 6 8 8 0 6 $ . . X $ :       ",
"        0 6 % % % % 7 q q r ) ) _ [ [ ` ` ` ` 4 X % ) [ _ 8 8 9 4 7 ( ) _ _ 8 4 & 4 4 & & 4 6 6 7 8 r t t t t 0 $ X X $ %       ",
"          & % & & 5 0 0 r t t r r q 8 5 - 4 8 q : % q ) ) 8 8 8 7 7 7 8 8 ( 9 % & 7 5 - - 5 5               p         0         ",
"                                1   2 3 =       u 6 0 q 6 6 6 q w w e C f - # - 4 8 6 8 5                                       ",
"                                                        6 6     N I t.<X                                                        ",
"                                                                                                                                ",
"                                                                                                                                ",
"                                                                                                                                ",
"                                                                                                                                ",
"                                                                                                                                ",
"                                                                                                                                ",
"                                                                                                                                ",
"                                                                                                                                ",
"                                                                                                                                ",
"                                                                                                                                ",
"                                                                                                                                ",
"                                                                                                                                ",
"                                                                                                                                ",
"                                                                                                                                ",
"                                                                                                                                ",
"                                                                                                                                "
};
