/* XPM */
static char *ee7c682dc9234599e525f4df742ab4bfYDEuD1eDcOxUt5vK[] = {
/* columns rows colors chars-per-pixel */
"64 64 235 2 ",
"   c #000000",
".  c #050B02",
"X  c #080D04",
"o  c #0A0A0A",
"O  c #0A1404",
"+  c #0D1D05",
"@  c #10170B",
"#  c #0E2405",
"$  c #132407",
"%  c #122907",
"&  c #172A09",
"*  c #163508",
"=  c #1D340A",
"-  c #223B0B",
";  c #1B420A",
":  c #1E4B0C",
">  c #28480D",
",  c #22560D",
"<  c #2A540F",
"1  c #2F5610",
"2  c #345A11",
"3  c #28630F",
"4  c #2B6710",
"5  c #396813",
"6  c #2F7311",
"7  c #377A14",
"8  c #406E15",
"9  c #467A18",
"0  c #368614",
"q  c #36961C",
"w  c #3D9718",
"e  c #379A1B",
"r  c #3A9C1D",
"t  c #3CA31D",
"y  c #3CAC1C",
"u  c #3DB31C",
"i  c #3FBB1C",
"p  c #3D9C22",
"a  c #3FA921",
"s  c #4B8819",
"d  c #528D1B",
"f  c #479519",
"g  c #409F1D",
"h  c #56961C",
"j  c #5D9C1E",
"k  c #43A31E",
"l  c #42AC1E",
"z  c #49AB1D",
"x  c #5CA81E",
"c  c #44B31E",
"v  c #4CB21E",
"b  c #44BC1E",
"n  c #4ABB1E",
"m  c #449F29",
"M  c #459E2B",
"N  c #46A627",
"B  c #4CAC20",
"V  c #4BB421",
"C  c #4CBC21",
"Z  c #4DB92C",
"A  c #54B422",
"S  c #5BB725",
"D  c #54BB22",
"F  c #5ABB23",
"G  c #4BA233",
"H  c #53AB33",
"J  c #58B635",
"K  c #65AB20",
"L  c #68B823",
"P  c #70BD22",
"I  c #42C31D",
"U  c #4AC31F",
"Y  c #43CC1D",
"T  c #49CC1E",
"R  c #54CB1F",
"E  c #45D31D",
"W  c #4CD31F",
"Q  c #46DB1D",
"!  c #4BDB1E",
"~  c #55D91F",
"^  c #47E51C",
"/  c #4AE61D",
"(  c #4EE81E",
")  c #51E41F",
"_  c #51E91F",
"`  c #5DE81F",
"'  c #4DC420",
"]  c #4BC920",
"[  c #53C422",
"{  c #5BC322",
"}  c #52CC21",
"|  c #5BCC22",
" . c #57CA2A",
".. c #46D520",
"X. c #4DD422",
"o. c #54D321",
"O. c #53D627",
"+. c #5AD322",
"@. c #5ADC22",
"#. c #58C735",
"$. c #64C425",
"%. c #64CC24",
"&. c #6BCC26",
"*. c #68CA2B",
"=. c #75C926",
"-. c #66D324",
";. c #6DD326",
":. c #63DB24",
">. c #6BDC26",
",. c #74D328",
"<. c #75D628",
"1. c #75DB28",
"2. c #7BDC29",
"3. c #6ECC32",
"4. c #74D834",
"5. c #54E321",
"6. c #5DE323",
"7. c #55EA20",
"8. c #5DEB22",
"9. c #57E82B",
"0. c #5DE834",
"q. c #63E424",
"w. c #6DE426",
"e. c #62ED24",
"r. c #6BED25",
"t. c #64E52C",
"y. c #64ED2B",
"u. c #6BEE2A",
"i. c #72E227",
"p. c #72ED26",
"a. c #7CE429",
"s. c #75EC29",
"d. c #7BEB2A",
"f. c #63F124",
"g. c #6CF126",
"h. c #67F129",
"j. c #73F127",
"k. c #79F126",
"l. c #74F129",
"z. c #7CF329",
"x. c #6BED33",
"c. c #6AEA39",
"v. c #74ED3D",
"b. c #6EF135",
"n. c #75F234",
"m. c #7CF231",
"M. c #72F03A",
"N. c #57A840",
"B. c #5BAA43",
"V. c #5FB147",
"C. c #61AE4A",
"Z. c #70B759",
"A. c #7EBD6B",
"S. c #75CD51",
"D. c #75EC46",
"F. c #75EE4A",
"G. c #7AF143",
"H. c #79EC54",
"J. c #81D629",
"K. c #85DD2A",
"L. c #89DD32",
"P. c #83E42B",
"I. c #8BE62C",
"U. c #84ED2B",
"Y. c #8CEB2D",
"T. c #91EE2E",
"R. c #83F32B",
"E. c #87F72A",
"W. c #8BF52C",
"Q. c #95F62E",
"!. c #98F62F",
"~. c #93F92E",
"^. c #99F92F",
"/. c #8EE735",
"(. c #8AF436",
"). c #84F23B",
"_. c #94F533",
"`. c #99F633",
"'. c #9AF931",
"]. c #93F43C",
"[. c #9DF63A",
"{. c #9DF93A",
"}. c #82D347",
"|. c #82F24B",
" X c #8BF24A",
".X c #9CF644",
"XX c #96F44B",
"oX c #90E854",
"OX c #8AF257",
"+X c #99F557",
"@X c #A1F644",
"#X c #A4F64C",
"$X c #A4F948",
"%X c #A4EC57",
"&X c #A6F756",
"*X c #A9F754",
"=X c #ACF75B",
"-X c #89CF6F",
";X c #8BC777",
":X c #8AE863",
">X c #8CF063",
",X c #95F368",
"<X c #90ED71",
"1X c #9DF478",
"2X c #A4E66A",
"3X c #ABF666",
"4X c #B4FA66",
"5X c #B3F76C",
"6X c #A6F677",
"7X c #ADF673",
"8X c #B6F673",
"9X c #B9F777",
"0X c #B5F779",
"qX c #BDF87A",
"wX c #A5D993",
"eX c #AFEE87",
"rX c #B8F686",
"tX c #A9E992",
"yX c #B9F59C",
"uX c #BAE6AB",
"iX c #C2FA85",
"pX c #C4F798",
"aX c #CCF89C",
"sX c #C0EFAA",
"dX c #CCF8A3",
"fX c #D3F9A7",
"gX c #CCF7B4",
"hX c #CDF7B7",
"jX c #D8F9BA",
"kX c #D3F0C6",
"lX c #E3F9C8",
"zX c #E8F9D8",
"xX c #EDF9E3",
"cX c #F2FAE8",
"vX c #F9FAF6",
/* pixels */
"                      .                             . + % * % # O .                                                         o   ",
"                                                # 6 c R @.@.@.| R v k w 3 #                                                     ",
"                                            . 3 R k.E.E.W.W.W.E.E.E.E.R.j.| k < .                                               ",
"                                          O w p.W.!.^.*X=X`.Q.Q.E.p.z.+X_.W.E.E.d X                                             ",
"  .                                     . 0 ,X&X^.[.@XfXcXaX(.g.g.H.y.8.u.(.!.!.Q.s                                             ",
"                                        3 r..X{.!.[.[.8XxXzXpXn.f.>Xb.8.M.,X X@X~.T.8                                           ",
"                                      # } z.l.g.E.~.R.m.OX X).G.G.f.f.f.y.y.>X=XQ.!.T.9 $                                       ",
"                                      7 f.c.0./ 8.r.j.r.k.].5X&X5X_.j.7.f.e.e.).*XQ.'.R.+.5 X                                   ",
"                                    ; ~ ( 7.H.9.7.r.z.e.8.b.1Xu.R._.Q.r.( 7.r.).3X_.!.Q.k.r.f O                                 ",
"                                  : } x.9.( F.9./ R.R.z.u.8.5./ / 6.` ! ! ) e.W.W.W.@X_.W.E.R.9                                 ",
"                                3 @.b.hXkXH.( ^ _ r.8.g.>.-.{ C | | i e r y ! e.R.+XaX=Xe.z.3XL.&                               ",
"                              6 x.OXb.kXsX9.( / e.7.8.@.y q q r S $.l q q e y E y.gX8X`.k._ d._.9         .                     ",
"                            ; 6.b.M.f.F.0./ ( 7.W / ! u q q q q A <.$.r q q q e I c.`._.~.+Xv.W.J.=       o                     ",
"    o .                   . k f.8.f.7./ ^ / e.U | / i q q r A A B ,._.&.g q q q q ' U.~.!.9X3XQ.'.s                             ",
"                          ; ` f.f.f.( / 9.t.n [ 6./ I q l K._.Y.<.d.W.R.o.I t q q q D _.!.R.W.!.`.=.O           o         .     ",
"                        . w h.y.8.8./ / H.-XU / 7./ I k &.,.%.6.6.8.e.:.+.8.! y y t r 2.!.E.z.Q.!.T.2     .                     ",
"                        % :.+XyXy.( / / 8.s.8.( ^ i r A B q B ;.>.o.8.f.6.p.g.! Y E r S `.W.g.E.Q.'.L .                         ",
"                        4 R.[.4Xy.7.8./ e.r.7./ b r k F r C e.z.z.e.y.f.f.f.g.7.E E u g P.W.z.R.R.Q.K.$                         ",
"                      $ { (.'.Q.r.7.R.r.8.( / / b B e k A >.@.} } o.6.f.f.8.8.u.f.o.c q $.W.e.U.s.`.`.1   .                     ",
"                      5 W.9X=XE._ g.R.r.e./ / ..n ,.l -.$.l e e r N D q.f.6.B 1.z.g.>.g z s.( z.R.`.4X9                         ",
"                      s E.[.[.r._ j.s.e.8./ / Q $.$.D N q q u y r &.Q.Q.l.e.c A z.j.r.S e :.7.R.W.!.{.P .                       ",
"                    X F &X`.R._ 7.r.p.r./ / / 8.<.k r q q q e e q r S ,.U.g.o.r i.g.R.&.e ' 5.l.R.Q.^.K.&                       ",
"o   o               O *.7X[.k./ y.y.8.e./ / / d.F t q q l V t q q q q q B 1.e.t } j.E.2.S { E g.U.Q.Q.K.&                       ",
"      .         .   O %.~.!.k.0.hXwXW 5./ / I &.[ r e ' 8.o.r q q e q q q l @.V c d.2.2.{ D I e.k.W.`.K.+                       ",
"                    = i.~.!.W._ tXkXZ ^ / ^ } P.&.r c 8.6.k q q q q q e q q { o.t d.,.S R I i 7.U.W.!.T.-                       ",
"                    = i.W.!.Q.` S.zX:X^ / X.;.{ N r Q j.S q q q q r q q q e 2.d.k -.p.l U Y i ( R.R.[.[.2                       ",
"              .     O | R.Q.Q.p.O.oXv./ ^ -.%.b y I / >.g q q q q q r y y q &.z.C A j.b I Y I / k.R.qXiXs                       ",
"                .   + +.E.@XqX)./ _ r./ Q ;.[ C Y / / D r q q e q r R e.8.U { l.X.z r.U t Q Y E i.(.@X$XK .                     ",
"                    - a.Q.8XzXXX_ _ _ / b z n o./ ^ W &.k q e q q q W ) 8.X.b q.q.l -.' t Q I N 2X[.`.~.J.@ .                   ",
"                    1 z.W.(.OX(.l.8.! Q r q l T / / @.$.q B B q l u y t ] I I | p.A F ' t Q I m 2X^.4X[.I.-                     ",
"                    1 z.W.R.k.3X XR :.b q q k E / / p.A q $.k l / c q e u t Y %.z.i.%.| t E Q W Y.E.[.@X%X-                     ",
"                    d l.W.Q.Q._.R.1.+.y q e t E / 7.U.t g $.r ' e.&.r e u y t $.W._.>.%.q I Q 8.Q.k.~.[./.=                     ",
"                    x g.~.!.`.Q.R.E.B q q q k :./ 8.a.r B $.t 5.l.Q.:.n b >.N $.'.!.r.%.t T Y r.W.n.5X`.I.=                     ",
"                  . A j.Q.Q.#X5XXXS.r q q r V w./ 7.-.q A a.-.8.d.&.| n q.W.A }.qX3Xx.>.>./ I d.z.z..XQ.Q.2                     ",
"                    f r.~.Q.[.@X9XZ.q q q y } >./ ( [ q F z.z.e.7.C i k 1.r.v 2XaXyXy.e.W.8.o.U.z.Q.Q.!.'.d                     ",
"                    < u..X!.Q.^.I.w q q q t X.5./ ( ' q V e.u.8.7.T y I I i { #XdX<X5.8.R.6.:.d.p.[.[.Q.'.h                     ",
"                    1 s.7X[.!.!.1.m w q q r ../ / / ' q c e.e.} o./ u t t c 6.6XeX9.7.r.d.W | 8.k.#X=X@X{.d                     ",
"                    < u.k.Q.!.9X:XC.m q q e E / / ( U q z r.7.o.V @.6.} } c.6XeX+./ ( s.$.t Y 8.#X].Q.qX$Xd                     ",
"                    * p.~.Q.8XzXpX;Xq q q e Y / / / ' q k a._ ` @.o.e.f.b.yXrX*.I / T K.B r Q j. XD.R.[.~.f                     ",
"                    $ -.E.^.9XjXxXuXB.m q q I / ^ ( ] q r &.z.e.g.g.f.r.y.M.z.@.Y b C <.r y q.W.e.e.8X@X~.d                     ",
"        .           X F z.!.!.@X7XJ B.M q q i I i ( 6.c q N Y.R.j.j.z.z.l.r.o.i r q $.A q } z.R.p.+XdX[.T.>                     ",
"      .               x z.Q.*X[.E.X.q q q q U u t / f.@.r q &.Q.R.f.f.k.;.B e q q B *.r r q.W.R.#XfX*X^.=.O                     ",
"                      7 z.!.@X`.].#.q C.p q } c e Q f.e.y q r 1..XqX0X0Xt.@.' e z <.V q C e.Q.].jX9X!.!.h                       ",
"                      5 k.~.Q.Q.*XS.m wXN.q C } e U j.u.o.r q l D.hXcXzX|.8.n V ;.| l r } f.a.8XaX!.!.!.5         .             ",
"                      > s.Q.!.!.W.7.a M p q a 6.y B W.W.g.W y q N @.OX6XF.e.8.e.r.o.V t o.8.-.]._.@X`.J.$                       ",
"                      $ 1.Q.Q.!._.e.i q q q t r.} [ z._.W.z.6.} V B U 8.f.f.f.f.8.} t t 6.8.e.r.R.@X[.K                         ",
"                      O $.R.`.!.Q.z.Z a e q r &.@.e.e.R.'.!.R.o.X.@.o.W o.@.@.} V q q e 6.| b r.Q.!.T.<                         ",
"                      . z n.aXdX*XW.' a u q q L { y.f.g.W.!.Y.2.%.D B G N { ;.,.B q q ' @.N  .h.Q.!.=.X                         ",
"                    o   4 l.3XfXqXQ.6.u I y q V 3.}.y.y.g.z.<.z $.P.I.oX4.P.2.{ k t } ] ' H tXl.Q.{.d                           ",
"                        $ +.h.R._.Q.W.:...] q r ,.A o.y.f.f.d.F q m A V t g a V ' o.' t e B.sXn.z.2.>                           ",
"                          f h.f.g.~.[.0X,X;Xe e S $.l 8.6.6.O.+.U c t r c W @.o.' y y e q N c.y.e.4                             ",
"          .               & R f.|.@X`.*X$XoXX.' k m p [ W Z B e n o.@.6.|.x.n r y u Z N A a.W.z.r . o                           ",
"          o                 % n 1XrX~.Q.!.`.sXpX4.e M B.' O.c u t q l ' S.3.{ I Q u H J T.[._.-.%   o                           ",
"  .                           *  .b.E.!.Q.[.qX4Xz.#.V.q q c c.H...i t E E Y ! ) Z q m S W.!.>.,                                 ",
"                                , ~ 8.R.!.!.Q.~.e.H.eX} G G Z.;Xa J ;XO.Q Y y H ;Xm F T.Q.~.f                   @               ",
"                                . r 7.r.Q.Q.l.g.8._ G.<XtX-Xq q t B.A.a r q q q G J -.~.Q.p.:                                   ",
"                  .               : 8._ j.g.e.7./ ^ c.yXH.x.@.V r r y I b C S V *.).z.R.Y.7 .                                   ",
"                                  O S f._ 8.e._ 0.9._ f.f.M.1Xy.} n t.|.).].&X XW.E.W.~.d                                       ",
"                                    - =.g._ _ _ H.0.^ f.f.|.OXM.1X9.|.gXgXzXzXjXpXiX#XT.<                                       ",
"                                      & j a.R.E.8./ ^ _ f.G.G.y.<Xy. X0XgXvXvXvXvXxX=Xh .                             o         ",
"                                        . - j I.(.8.D.9.7._ _ _ q.E._.+XG.pXlXlXjX4X=.%                                         ",
"                                            . - K Y..Xb.8.e._ r.Q.`._.+Xl.z.{..X'.P -                                           ",
"            .                               o   . > x K.Q.W.W.Q.Q.Q.Q.T.Q.Y.I.2.s @                                             ",
"                                                    . = 9 j j j 9 5 5 2 1 > - $                                                 "
};
