/* XPM */
static char *_cfae149359d44e4a341d0aa80f476475Iq1sIiU7qDTGAKH[] = {
/* columns rows colors chars-per-pixel */
"64 64 230 2 ",
"   c None",
".  c #020202",
"X  c #060C04",
"o  c #0C0C0C",
"O  c #080D06",
"+  c #0C1509",
"@  c #0B0D10",
"#  c #0D1012",
"$  c #131514",
"%  c #1B1C1B",
"&  c #191816",
"*  c #12100F",
"=  c #231D1A",
"-  c #0E2407",
";  c #132908",
":  c #193E09",
">  c #1E241B",
",  c #1C3413",
"<  c #24251E",
"1  c #213A17",
"2  c #1C2125",
"3  c #232424",
"4  c #2B2C2C",
"5  c #272925",
"6  c #35322E",
"7  c #323433",
"8  c #393C3B",
"9  c #373936",
"0  c #2C2F2E",
"q  c #091221",
"w  c #423E34",
"e  c #194706",
"r  c #195206",
"t  c #18470F",
"y  c #245608",
"u  c #2B5518",
"i  c #254915",
"p  c #2E7104",
"a  c #327011",
"s  c #2F5A21",
"d  c #355927",
"f  c #3C453A",
"g  c #294828",
"h  c #366526",
"j  c #3C692F",
"k  c #1F6100",
"l  c #43453E",
"z  c #504C3E",
"x  c #456D37",
"c  c #1C3458",
"v  c #283848",
"b  c #3B3C48",
"n  c #193C6E",
"m  c #45394D",
"M  c #4B3A4E",
"N  c #543C4D",
"B  c #5B3D4E",
"V  c #4D3B50",
"C  c #473C51",
"Z  c #523C50",
"A  c #603F4B",
"S  c #3C4744",
"D  c #3D5247",
"F  c #344554",
"G  c #1C467A",
"H  c #3A496A",
"J  c #434443",
"K  c #4B4B4C",
"L  c #454847",
"P  c #5C414B",
"I  c #514B47",
"U  c #41534A",
"Y  c #4C524C",
"T  c #475C4E",
"R  c #4C4254",
"E  c #4C4A5C",
"W  c #4A4756",
"Q  c #534354",
"!  c #594959",
"~  c #4C5B56",
"^  c #4B5755",
"/  c #5C525E",
"(  c #565856",
")  c #5C5846",
"_  c #63424B",
"`  c #6C4A4C",
"'  c #634A55",
"]  c #664854",
"[  c #69545A",
"{  c #74575B",
"}  c #476B48",
"|  c #57645B",
" . c #526A57",
".. c #62645A",
"X. c #746F5A",
"o. c #574F61",
"O. c #485667",
"+. c #575566",
"@. c #4B5774",
"#. c #515A73",
"$. c #424F6F",
"%. c #665767",
"&. c #725864",
"*. c #6A5F70",
"=. c #5A6766",
"-. c #586479",
";. c #56686F",
":. c #656B64",
">. c #6C6C6D",
",. c #646665",
"<. c #69736D",
"1. c #777868",
"2. c #646A7C",
"3. c #666A7A",
"4. c #6A7775",
"5. c #737D7B",
"6. c #7C7D7D",
"7. c #777A75",
"8. c #7F656A",
"9. c #867574",
"0. c #3A8518",
"q. c #358309",
"w. c #3D8527",
"e. c #449719",
"r. c #428F16",
"t. c #4BA31C",
"y. c #49942A",
"u. c #498A33",
"i. c #4D9335",
"p. c #4C9836",
"a. c #4E9633",
"s. c #56A626",
"d. c #58A93D",
"f. c #5DBB33",
"g. c #5CB737",
"h. c #58B52C",
"j. c #67B73B",
"k. c #65C53C",
"l. c #5FC133",
"z. c #589847",
"x. c #558B4B",
"c. c #5AA644",
"v. c #5EB641",
"b. c #65B848",
"n. c #6ABB54",
"m. c #7CB955",
"M. c #72BB55",
"N. c #61A851",
"B. c #6A8171",
"V. c #77827B",
"C. c #6F9A6B",
"Z. c #72A763",
"A. c #61915C",
"S. c #66C443",
"D. c #69C54A",
"F. c #6BCB4B",
"G. c #69C548",
"H. c #6DD04C",
"J. c #71CC55",
"K. c #7ADB5C",
"L. c #77D558",
"P. c #6FC850",
"I. c #74C162",
"U. c #7DC667",
"Y. c #7DDC62",
"T. c #7BD563",
"R. c #898A76",
"E. c #81DC69",
"W. c #80DE66",
"Q. c #89CE7A",
"!. c #84E16B",
"~. c #84E46A",
"^. c #8CE673",
"/. c #94E87A",
"(. c #1F4885",
"). c #2B6CAD",
"_. c #5E6A87",
"`. c #656D81",
"'. c #696F81",
"]. c #6C7484",
"[. c #697588",
"{. c #737B8B",
"}. c #767783",
"|. c #757E93",
" X c #607891",
".X c #607CA5",
"XX c #877382",
"oX c #7B8B87",
"OX c #798496",
"+X c #7D929A",
"@X c #6F8BAE",
"#X c #3C87C6",
"$X c #4695D2",
"%X c #6FABD8",
"&X c #858987",
"*X c #82928C",
"=X c #8B928D",
"-X c #899994",
";X c #929998",
":X c #9E9D8E",
">X c #94A29C",
",X c #888FA3",
"<X c #899AA8",
"1X c #949CB0",
"2X c #9BABA5",
"3X c #9FAEA9",
"4X c #9AA4A3",
"5X c #8EA7B5",
"6X c #A6ADAB",
"7X c #ADBAB6",
"8X c #B2BEBB",
"9X c #A3B3AD",
"0X c #A19F90",
"qX c #C0BCA9",
"wX c #9BED84",
"eX c #9BF283",
"rX c #A3F28D",
"tX c #A8F692",
"yX c #B2C2BC",
"uX c #93B6CF",
"iX c #A5B8D4",
"pX c #BBCBC7",
"aX c #B5D1E0",
"sX c #C5CCCC",
"dX c #CBDBD5",
"fX c #D5DEDE",
"gX c #C5D5CF",
"hX c #D2E2DC",
"jX c #DCE9E5",
"kX c #E3EEEC",
/* pixels */
"                                                                                                                                ",
"                                                                    ,X,X,X,X,X,X                                                ",
"                                                              |.#.#.#.#.#.#.#.#.OX                                              ",
"                                                        @.@.#.3.].].].].{.].].].-.H H H 1X                                      ",
"                                                    #.`.[.].'.].].].].'.].].].'.`.`.`.[._.$._.                                  ",
"                                                  `.2.'.{.OXOXOXOX{.o.E E ! E E W W E '.`.-._.[.                                ",
"                                                -.].{.{.|.{.{.|.{.3.! B M m M b V M b o.+.-.'.@.OX                              ",
"                                              #.].].3.].{.}.}.'.#.[ &._ M m V V Z B V m b R 2.].@.|.                            ",
"                                            `.].].3.E Q *.XXXX%.[ { &.Q M m m N A _ B Z V b C 2.].#._.                          ",
"                                          `.].].3.E Z ] 9.9.*.%.o.o.o.V M N M M N _ _ A M m C W 2.[._.`.                        ",
"                                          ].].2.o.Z V Z ] 9.&.&.&.o.W V B _ P M V B A B V V Z m E -.`.H                         ",
"                                        -.[.3.o.Z _ Z M V B ] [ [ ' V Z _ _ _ B M V N m m Z N Z m E ].@.                        ",
"                                        ].'.E o.&.{ ` B M m V Z A _ Z m M B A A N m V M m m m V m E ].].$.1X                    ",
"                                      #.`.E Q *.9.&.{ ` P M m m N ` B M M Z B Z M m m P P N C m M C E 2.$.<X                    ",
"                                      O.( m o.%.%.%.&.] A B M m N A B V M m V m M P N B N M M P P M b O.H 1X                    ",
"                                      O.S C Z ! / o.o.] B N M M M B V M m m m m N _ Q Q C m M _ B C b S F |.                    ",
"                                    V.<.C Z N ] [ ! R N N M m M Z B M M M m m V M Q o.o.Z V V Z Z C b D D D 4.                  ",
"                                  *X-X*X>.Q M Z _ _ M m m M M N B V M N A _ V m m Q { { ] V V V Z V m D =.=.<.                  ",
"                                  *X7XgX9X>.,./ B N m N P P M M M m M B _ _ B m M _ _ ] A Z V m b S U oXoX .<.                  ",
"                                  4.2XpX7X2X3X&X/ / ( | [ _ N N M V N A B N M M B _ B M I M S S =.4.<.5.V.=.<.                  ",
"                                   .B.oX-XhXdX9XoX-X+X-XoX' ' ` ] ' ' ! ! E W R M N R ^ ~ ~ ~ ~ 5.-X+X~ =. .:.                  ",
"                                  s.x <.3XgX>X3XdXdXdXdX7XV.B.V.7.4.7.V.V.B.<.^ U L T oX>X>X>X>X;.| V.<.~ g x                   ",
"                                  s.M.C.=.=.oX3XpXjXkX7X>XpXpXpX2XV.yXpXpX9X| B.*XoXoX=.oX3X2XoXB.=.T U x y f                   ",
"                                  s.L.Q.C.C.B.4.5.*X-X*X>XpXpXjXdXyXjXkXkXdX>XyXyX3X2X<.;.4.4.| =. .x.x.t.y 4                   ",
"                                  s.P./.rXeXA. .}  .} B.*XoXoX3XyXyXyX7X7XpXpX7X4XoXoX4. .} } } } z.H.F.e.u <.                  ",
"                                  s.F.^.!.^.Y.Y.Y.T.Y.A.D T ^ T T T T } T D D D D D D U z.F.G.G.S.G.F.S.1 >.                    ",
"                                  s.f.K.Y.~.~.~.^.Y.K.D.b.I.I.I.I.I.I.I.I.N.t : t : t z.G.F.F.F.F.F.k.t.; 7.                    ",
"                                    b.G.~.Y.d.j h d s s u.K.K.Y.Y.~.~.^.D.w.p w.0.r r g.H.F.F.F.F.F.k.t.; >.                    ",
"                                    m.s.W.W.u + q % $ . - u.S.Y.Y.Y.Y.Y.z.r t.L.H.e.r d.F.F.F.F.D.S.h.a f                       ",
"                                    W.h.W.j., 4 ~ ^ S % . + d.Y.Y.eXY.eXz.k S.wX/.N.t g.F.F.F.F.F.f.p +                         ",
"                                    W.l.L.t.x I 8 # o . . + d.K.^.Y.^.Y.T.I.F.wXeXN.- d.H.F.F.F.H.p.e X                         ",
"                                    R.h.M.: < < $ . . & % * n.~.Y.^.Y.Y.Y.Y.J.Y.K.0.X p.H.F.F.F.l.a >                           ",
"                                    W.f.Q.d o . . . & 3 < t J.~.^.Y.Y.^.Y.Y.J.H.y.r u b.F.D.F.f.0.r 3                           ",
"                                    m.P.wXE.g . . . 0 < e s.Y.!.Y.^.^.Y.^.T.v.w.e i D.F.F.F.S.e.r ; K                           ",
"                                  j.G./.rXwXs.e . . o j F.W.E.!.^.Y.Y.^.Y.n.- + h S.F.F.F.F.v.k + (                             ",
"                                  s.P./.tXrX/.U.Z.Z.z.n.~.E.!.!.Y.^.^.Y.Y.n.p.w.d.F.F.F.F.k.e.; <.                              ",
"                                  s.k.^.wXrXtXtXtXeX^.~.!.E.!.E.Y.Y.Y.Y.Y.F.H.H.F.F.F.F.k.y.y :.                                ",
"                                  m.a.b.^.wXwXwX/.~.!.~.!.!.!.!.Y.wXY.Y.L.F.F.F.F.F.F.k.e.y K                                   ",
"                                    ( s F.Y.!.!.!.!.!.!.E.!.!.!.Y.wXY.L.F.F.F.F.F.F.j.t.e (                                     ",
"                                      1.i s.F.Y.!.~.!.!.!.!.!.!.Y.J.J.F.F.F.F.H.l.0., ; 1.                                      ",
"                                        <.e u a.k.k.L.K.K.K.K.K.K.H.F.l.h.s.h s y d 9.                                          ",
"                                          Y w d p p y.u.i.p.p.p.p.p.u.0.p y + > $ L                                             ",
"                                                # @ $ $ + X O O X X X O X - l 9.z L                                             ",
"                                                  .X5X5X-.3 L 0 % % 3 S z ..:XV.| L K                                           ",
"                                                <.O.3.3.=.L l 5 < 6 6 ( :.V.qX1.....) :.                                        ",
"                                                v 9 :.I 8 O.v c 0 = = J ( X.:XR.1.1.X.<                                         ",
"                                              iX@X<.sX=Xv G ).).G # O = 6 J | 9.R.X.f &                                         ",
"                                            ,.@.@X..( ( O.(.#X$X$X).n q & 6 l L z J 8 &                                         ",
"                                          ,.0 @.@XD >XoXF (.#X$X$X#X(.v & & 5 7 J K f oXuX                                      ",
"                                        R.e > @.@XOX3XV.8 c %X%X%X%Xc 4 < O & ;.:.=.&X<X X+X                                    ",
"                                        r q.: F @XaX+.Y K 4 7XuXuXiX> $ % * @ +X+XV.dX:.5 %.                                    ",
"                                        e r p.s W hX:.Y >.5.4 4X4X% 7 8 3 o . 9 4XsX1.9.X.R.                                    ",
"                                          - 0.e.a ^ 6X=X>.=XY L 7 $ 3 3 % @ O ) &X:X0Xw = ,.                                    ",
"                                          9.u y : o sX6X:.&X:.f 3 < & $ & $ . w l w [ j - K                                     ",
"                                            >.7 3 $ sXsX=X6X&X>.Y 0 5 3 > & . . X - , u.j 6.                                    ",
"                                                  % 8XkXjXkXjX:X..:.:.U S 8 & . e e.d.,                                         ",
"                                                  o 0 8 8 8 8 >XjXfXfXpXuXuXOX2 X ; 1                                           ",
"                                                  o . $ J ;.3 ^ oX6.7.3.-.;.O.}.                                                ",
"                                                  7 7 8 <.+X^ * . . . X o o @                                                   ",
"                                                3 &X;XW $ 2 7 $ O < < 4 8 9 #                                                   ",
"                                              6.* m >.>.K 8 % . * 0 m L S 4 o                                                   ",
"                                                >.* 2 J ( m * * 4 f 9 8 3 3                                                     ",
"                                                  ,./ 7.=X&X,.>.}.&X7.6.:.}.                                                    ",
"                                                                                                                                "
};
