/* XPM */
static char *_7667018cb6c4d5efaa9a7bd46f1c650xpC7PNlk5cQC0ykG[] = {
/* columns rows colors chars-per-pixel */
"64 64 230 2 ",
"   c None",
".  c #020202",
"X  c #0C0C0B",
"o  c #070B06",
"O  c #0B1705",
"+  c #111A0C",
"@  c #141413",
"#  c #1A1A15",
"$  c #1B1C1C",
"%  c #141915",
"&  c #0E1112",
"*  c #211D1A",
"=  c #0A2500",
"-  c #142A07",
";  c #16390B",
":  c #192615",
">  c #173610",
",  c #23231D",
"<  c #223C1A",
"1  c #242522",
"2  c #2B2B24",
"3  c #2B2C2B",
"4  c #272825",
"5  c #2E322E",
"6  c #32322B",
"7  c #2D3334",
"8  c #333533",
"9  c #393C3A",
"0  c #383936",
"q  c #312C2B",
"w  c #101B2B",
"e  c #403A36",
"r  c #184408",
"t  c #164809",
"y  c #214B07",
"u  c #264816",
"i  c #285C19",
"p  c #29560C",
"a  c #276508",
"s  c #2E7506",
"d  c #34780B",
"f  c #316614",
"g  c #387B18",
"h  c #296916",
"j  c #365B27",
"k  c #3C433A",
"l  c #314F24",
"z  c #356624",
"x  c #3C732C",
"c  c #47453D",
"v  c #40523B",
"b  c #3E394A",
"n  c #223C63",
"m  c #1E3861",
"M  c #45394D",
"N  c #4B3A4E",
"B  c #533C4D",
"V  c #5A3D4E",
"C  c #4C3B50",
"Z  c #463D51",
"A  c #533C50",
"S  c #5E3F51",
"D  c #603F4D",
"F  c #3D4746",
"G  c #3C4756",
"H  c #3E5448",
"J  c #3C4A6C",
"K  c #2B4E75",
"L  c #414342",
"P  c #444944",
"I  c #4A4B4A",
"U  c #464747",
"Y  c #5D414B",
"T  c #56404A",
"R  c #42544B",
"E  c #485D4E",
"W  c #48574A",
"Q  c #4B4355",
"!  c #4C495C",
"~  c #4E4E51",
"^  c #5C4452",
"/  c #554859",
"(  c #4B5857",
")  c #575959",
"_  c #51564E",
"`  c #64424B",
"'  c #69474B",
"]  c #644A56",
"[  c #6A5359",
"{  c #71545B",
"}  c #75575A",
"|  c #665B49",
" . c #486847",
".. c #53625D",
"X. c #5D635C",
"o. c #557A51",
"O. c #536E50",
"+. c #61665E",
"@. c #6B7858",
"#. c #5B5162",
"$. c #575867",
"%. c #4B5673",
"&. c #495876",
"*. c #515B74",
"=. c #575F77",
"-. c #4D5267",
";. c #665866",
":. c #735A64",
">. c #5B6865",
",. c #5C657C",
"<. c #596675",
"1. c #43617B",
"2. c #646A63",
"3. c #656A69",
"4. c #63736D",
"5. c #646C7D",
"6. c #656777",
"7. c #756973",
"8. c #6C7A76",
"9. c #6A7776",
"0. c #727D7A",
"q. c #7A7C7B",
"w. c #747774",
"e. c #76706C",
"r. c #877474",
"t. c #38850A",
"y. c #3D8812",
"u. c #3A8522",
"i. c #449216",
"p. c #4BA418",
"a. c #498A35",
"s. c #4C9335",
"d. c #4C952E",
"f. c #59A727",
"g. c #57AB2A",
"h. c #59B72B",
"j. c #56A537",
"k. c #5EBB35",
"l. c #4FA62A",
"z. c #65AC3B",
"x. c #63C33A",
"c. c #5FC133",
"v. c #579449",
"b. c #5CAA46",
"n. c #5EB044",
"m. c #68B452",
"M. c #72827C",
"N. c #7C857D",
"B. c #698F68",
"V. c #7AB46A",
"C. c #608158",
"Z. c #66C445",
"A. c #6ACA45",
"S. c #68C54A",
"D. c #6BCB4B",
"F. c #68C545",
"G. c #6ED24D",
"H. c #6ECA52",
"J. c #72CE56",
"K. c #72D253",
"L. c #7ADB5C",
"P. c #78D45A",
"I. c #70CE4C",
"U. c #74C162",
"Y. c #79CF62",
"T. c #7DDA63",
"R. c #7CE15D",
"E. c #85877C",
"W. c #81DD69",
"Q. c #83DC67",
"!. c #8FDC78",
"~. c #84E16B",
"^. c #85E56B",
"/. c #8EE674",
"(. c #92EB7A",
"). c #29598E",
"_. c #596982",
"`. c #56719A",
"'. c #656D82",
"]. c #686F80",
"[. c #6D7585",
"{. c #6A7283",
"}. c #6E7689",
"|. c #737988",
" X c #777F91",
".X c #5276A4",
"XX c #8A7584",
"oX c #7B8B85",
"OX c #7A8685",
"+X c #798794",
"@X c #6D8CAE",
"#X c #848786",
"$X c #82928C",
"%X c #8F9389",
"&X c #8A9994",
"*X c #939998",
"=X c #80879C",
"-X c #92A29C",
";X c #888FA3",
":X c #868CA1",
">X c #899BAB",
",X c #9DA9A4",
"<X c #9BA6B5",
"1X c #93AEBD",
"2X c #A3B3AD",
"3X c #ACBAB5",
"4X c #B0BCB9",
"5X c #A4A69C",
"6X c #9DEE86",
"7X c #A3F68B",
"8X c #A9F694",
"9X c #A0EF89",
"0X c #B4C2BD",
"qX c #9FCD83",
"wX c #88A7C6",
"eX c #9AB7DA",
"rX c #95B1CD",
"tX c #A6BDC5",
"yX c #96BCE5",
"uX c #BACAC4",
"iX c #BDCBC6",
"pX c #AEC1C8",
"aX c #AAC5E6",
"sX c #C2D2CC",
"dX c #CDDCD8",
"fX c #CED5D4",
"gX c #D7E3DF",
"hX c #DCE9E5",
"jX c #E3EBEB",
"kX c #E0F0EA",
/* pixels */
"                                                                                                                                ",
"                                                    ;X;X;X;X;X;X:X<X                                                            ",
"                                                  =.*.*.*.*.*.*.%.5.                                                            ",
"                                          %.J J %.[.}.{.[.[.[.[.{.{.*.%.%.}.                                                    ",
"                                      J &.'.'.'.'.{.{.{.{.{.{.{.}.w.{.5.{.'.,.*.                                                ",
"                                    _.,.5.{.$.! ! ! ! ! ! / ! 5.+X+X=X=X X{.'.,.{.<X                                            ",
"                                  *.'.5.$.$.Z N M M M M N B ^ 6.}. X|. X X+X}.[.,.{.                                            ",
"                                %.{.].-.b b N S V M N M N V { [ ;.6.|.[.[.|.6.{.[.5.,.                                          ",
"                              %.{.{.! M M C V ` ` V M M Z A [ { ;.#.XXXX7.! Z 6.}.[.{.=.                                        ",
"                            ,.'.].! Z M M V ` ` V N N B A Z / #.#.#.:.r.r.[ S C =.[.[.'.{.<X                                    ",
"                          =.*.5.-.M A A C N ` V N M V ` V A Z #.;.:.{ :.:.^ B A / $.[.|.%.=X                                    ",
"                          _.,.<.b C B A M M B A N B ` ' D B N ^ { { ] #.A N N D ^ Q 6.{.,. X                                    ",
"                        &.,.{.$.b C M M M N N M N ` V V A N C ` D V A M M A ' } :.] C '.{.'.'.                                  ",
"                        J '.$.Z N M C C V ` N M N B V V C M V D D N M N D D { :.7.7./ ! =.,._.                                  ",
"                        J J G M V Y N N B B B V B N N N M C A V B M M A D D :.] ;.;.#.Z ~ -._.                                  ",
"                        G F b M V ` B M M Q / Y Y M M M M M A V B N C A S S ] #.#.#./ C U ( ,.                                  ",
"                      H R H F M C V A M C #.#.Q N C M N M N N B V N M N A V A ! [ [ V A Q ( M.M.                                ",
"                      ( 4.E b M C C M N ` { } / M M C V ` V N N V V N N M M M Y ` V M V ;.oX-XM.                                ",
"                      ( M.oX>.F U Z C B S ' ] ' B M A V ` ` N M M M M B Y T M B V ^ >.>.-XiXuXoX                                ",
"                      ( M.M.4.4.<.U b U U B B D D N B B V D V N B B B Y [ [ ) ) ) 7.,X2X2XuXpX9.                                ",
"                      H >.( OX-XoX....E ) ( Q T B N Q ~ ~ ^ ^ ^ ] | ' ] 6.$X$X$X$X-XsXhX,XoXoX .                                ",
"                      u H 4.M.>...&X-X-X-X&X>.F R R 4.8.M.M.M.M.8.0.M.w.,XdXdXdXdXuX$XiX0XOXE y.                                ",
"                    w.; u. .H ( 4.oX-X,X-X>.M.oXoXoX..$XiXuXuX&X&XuXuXsX2X,XhXhXsX2X&X9.<.B.U.p.                                ",
"                    e.= i.v.v.C.>...4.9.4.>.&X2X3XuX-XuXkXkXkXpXuXhXsXuX2X$X$X&XOX4.8.B.B.V./.p.                                ",
"                      l d n.G.b. . . . . .4.+XoX&X0XpX0XpX0X0X0X0X2XoXoX$XoX . .O.O.o.6X9X6XL.p.                                ",
"                        - j.G.D.Z.S.Z.Z.n.E H H H H H H ( H H E E E E E E O.T.T.T.T.T.T.T.T.Y.p.                                ",
"                        O y.x.D.D.D.D.D.S.n.z t r r r a.Y.U.U.Y.J.V.U.U.m.m.J.T.^.^.^.T.T.T.D.p.                                ",
"                        o t.k.D.D.D.D.D.D.S.h t h u.s g b./.T.^.~.W.L.R.b.i j z j x s.Y.6XJ.k.qX                                ",
"                        _ f p.x.D.D.D.Z.G.Z.h h Z.L.h.a h T./.T.^.T.S.j.u . & % # + - m.^.H.f.                                  ",
"                          3 p g.D.Z.D.D.D.Z.i u./.6XK.u.x T.T./.^.T.S.u . & 9 ~ ) F + j.L.D.f.                                  ",
"                          3 = u.D.D.D.D.G.Z.> x (.9XP.H.Y.^.T.T.~.W.D.< . . o X 5 I _ i.I.I.f.                                  ",
"                            k t h.Z.D.D.D.Z.: t A./.K.L./.T./.T.~.W.Y.< & 1 . . X $ 4 - s.I.f.                                  ",
"                            2.= t.h.F.D.D.S.x t d Z.D.P.~.~.~.~.~.~.W.z > 4 $ o . . . 2 m.P.f.                                  ",
"                              : r t.k.D.D.D.D.x ; d j.H.^.~.T.~.~.~.~.k.f : 8 X . . - m.7XQ.z.                                  ",
"                                o t d.G.D.D.D.Z.a.O o v.^.~.~.~.W.~.W.T.J.s.+ . . = i.!.8X6XJ.g.                                ",
"                                  O g c.D.D.D.G.n.a.a.n.T.~.~.^.~.~.~.~.~.P.b.B.V.V.Q.9X8X6XT.p.                                ",
"                                    l t.c.D.D.D.G.G.G.G.J.~.~.T.~.~.~.~.~.~.^.(.7X8X8X8X6X/.K.p.                                ",
"                                    q.u y.x.D.D.D.A.D.A.J.T.~.~.W.~.W.~.~.~.^.^./.9X7X9X/.J.j.z.                                ",
"                                        - y.k.D.F.D.D.D.D.I.T.~.^.W.~.W.W.^.W.^.~.~.Q.Q.P.a.6                                   ",
"                                          - - f h.D.G.D.D.D.I.I.T.~.~.~.~.~.~.W.~.~.K.h.f R                                     ",
"                                               .p j i d.h.h.A.G.K.L.L.L.L.L.L.F.x.j.i y _                                       ",
"                                                . X X r s d d.s.s.s.s.s.s.s.d.s s f c L                                         ",
"                                              r.$ 9 k 1 o o o o o o X o + % % & X _                                             ",
"                                            w.7 k ) X._ ~ I q * # , I 2 G @XwX X>X                                              ",
"                                          q.8 9 ) +.2.2.2.+.e q 2 2 k c ( 5.|.rXaX                                              ",
"                                          # 5 _ 2.2.+.X.) I 2 * , 6 6 X.+.0 c tXyXwX                                            ",
"                                          4 7 ( X.X.+.I 0 2 X . # 9 9 w.N.X.2.dXaXwX                                            ",
"                                          K ).K k c c e , X # $ # : 2 w.E.X.2.dXaX`.U                                           ",
"                                        eXwX1.K K n K w @ 4 8 8 6 6 8 +.2.P _ tXyX`.5 I                                         ",
"                                        _.>X&X,.)..Xm & @ 8 8 6 0 6 0 +.2.P L 1XyX`.4 ; C.                                      ",
"                                        : W 4X5X9.1X1 o # : 2 , 3 6 0 w.N.) U tXeX&.: s a o.                                    ",
"                                        | r.e.3XuX( & . , 0 9 0 c X.X.E.N.) I sXOX< j.a t C.                                    ",
"                                        * 2 E.5X%X@.# . * 2 6 6 P 2.2.#Xq.w.3X3.l t.p.- 2.                                      ",
"                                        o i X.I 0 c @ X , , , , c X.X.N.w.N.jX9 = p y X.                                        ",
"                                        k d.u - O . . # 2 2 6 0 I 2.E.-X*X5XjXF $ 0 P                                           ",
"                                          2 a.g.a . & q L P +.2.2.N.dXjXhXjXhX9 q.                                              ",
"                                            v - O o _.wXtXpXfXgXhXiXI 7 9 b 8 &                                                 ",
"                                                  OX<.*.<.<.0.q.r.3.1 ( ( 1 . .                                                 ",
"                                                    8 o X . . o . . 9 +X|.U 8 5 7.                                              ",
"                                                    8 1 F 7 2 , @ X 8 1 @ 7 #X*XL I                                             ",
"                                                    8 # 9 U L 8 $ . @ 8 I #.7.( $ L                                             ",
"                                                      L $ 0 9 b 7 % o 7 ) ~ 3 @ I                                               ",
"                                                        $.q.q.#X#Xw.[ N.%X|.) )                                                 ",
"                                                                                                                                "
};
