/* XPM */
static char *e5b968aff96346f4eef7e1679ba946bbTc9YVURaGHSaYhSb[] = {
/* columns rows colors chars-per-pixel */
"64 64 229 2 ",
"   c None",
".  c #030303",
"X  c #0B0B0B",
"o  c #070906",
"O  c #0A1403",
"+  c #0E1A09",
"@  c #111A0E",
"#  c #0E1215",
"$  c #131413",
"%  c #1C1D1C",
"&  c #171A1A",
"*  c #060B12",
"=  c #0E2806",
"-  c #112A06",
";  c #1D211B",
":  c #173D0A",
">  c #23231D",
",  c #222C1B",
"<  c #25351A",
"1  c #1A2530",
"2  c #222424",
"3  c #2D2A24",
"4  c #2B2D2A",
"5  c #292727",
"6  c #352D2A",
"7  c #302825",
"8  c #2C352A",
"9  c #35372A",
"0  c #363A35",
"q  c #373835",
"w  c #272F36",
"e  c #211D15",
"r  c #423E3C",
"t  c #0F4103",
"y  c #154608",
"u  c #295215",
"i  c #296306",
"p  c #357A0B",
"a  c #286617",
"s  c #316A13",
"d  c #2E7118",
"f  c #30760B",
"g  c #3D433E",
"h  c #264824",
"j  c #377127",
"k  c #43423D",
"l  c #425734",
"z  c #447934",
"x  c #1B3251",
"c  c #3E3B4B",
"v  c #373C44",
"b  c #2D384B",
"n  c #1D3B6F",
"m  c #45394D",
"M  c #4B3B4E",
"N  c #48374C",
"B  c #533C4D",
"V  c #5B3D4E",
"C  c #4C3B51",
"Z  c #443D50",
"A  c #523D51",
"S  c #5B3F51",
"D  c #3C4344",
"F  c #3C484B",
"G  c #354758",
"H  c #3B4B6A",
"J  c #414141",
"K  c #444A45",
"L  c #4B4C4A",
"P  c #474947",
"I  c #5D414B",
"U  c #514E4A",
"Y  c #42544B",
"T  c #444053",
"R  c #4B4255",
"E  c #4D475A",
"W  c #5C4352",
"Q  c #544B5D",
"!  c #554658",
"~  c #4A5853",
"^  c #515352",
"/  c #555B54",
"(  c #595E57",
")  c #5B5D5C",
"_  c #54555D",
"`  c #59584B",
"'  c #62424B",
"]  c #67484C",
"[  c #664C58",
"{  c #66525D",
"}  c #72565B",
"|  c #517D4E",
" . c #5E635D",
".. c #52635B",
"X. c #537E50",
"o. c #58755C",
"O. c #4A644F",
"+. c #696454",
"@. c #544F61",
"#. c #5C4F61",
"$. c #4C5464",
"%. c #585866",
"&. c #4C5774",
"*. c #515A74",
"=. c #575F77",
"-. c #4E4F61",
";. c #635262",
":. c #675A68",
">. c #6F5B69",
",. c #5B6365",
"<. c #5B6A65",
"1. c #596868",
"2. c #5B657B",
"3. c #596578",
"4. c #5E7078",
"5. c #636463",
"6. c #646B64",
"7. c #68686A",
"8. c #7A656D",
"9. c #62726C",
"0. c #657E6C",
"q. c #78766A",
"w. c #616375",
"e. c #676978",
"r. c #6B7572",
"t. c #6C7A75",
"y. c #677576",
"u. c #747473",
"i. c #757B75",
"p. c #737D7B",
"a. c #79797A",
"s. c #726373",
"d. c #88787A",
"f. c #3D8612",
"g. c #398707",
"h. c #388023",
"j. c #449515",
"k. c #44852E",
"l. c #45932D",
"z. c #4A9931",
"x. c #4B9337",
"c. c #4A8C37",
"v. c #54B322",
"b. c #56AA38",
"n. c #5DBD33",
"m. c #59B332",
"M. c #55A828",
"N. c #57B02A",
"B. c #5FC233",
"V. c #63C33C",
"C. c #5D845C",
"Z. c #4F8346",
"A. c #618C56",
"S. c #5FB941",
"D. c #5CA448",
"F. c #64BE47",
"G. c #65A658",
"H. c #60AC4A",
"J. c #74837E",
"K. c #7D847C",
"L. c #748270",
"P. c #608062",
"I. c #6ACA4A",
"U. c #69C64A",
"Y. c #6DD14C",
"T. c #73D256",
"R. c #77D75A",
"E. c #6FCB52",
"W. c #7CDA62",
"Q. c #76CA60",
"!. c #80877F",
"~. c #868169",
"^. c #83BF5D",
"/. c #83DF6A",
"(. c #80DD66",
"). c #8AD375",
"_. c #83E16A",
"`. c #83E468",
"'. c #22548C",
"]. c #204A82",
"[. c #3E638C",
"{. c #576F8E",
"}. c #646C82",
"|. c #6D7585",
" X c #697283",
".X c #677689",
"XX c #777584",
"oX c #757C92",
"OX c #5278A2",
"+X c #837383",
"@X c #768580",
"#X c #7B8B85",
"$X c #7F8786",
"%X c #7A8599",
"&X c #6F8796",
"*X c #6481AB",
"=X c #7396B3",
"-X c #6D96C5",
";X c #848B83",
":X c #868984",
">X c #86928B",
",X c #8B9B95",
"<X c #899994",
"1X c #949994",
"2X c #948D84",
"3X c #92A29D",
"4X c #A5A597",
"5X c #878EA2",
"6X c #8B94A6",
"7X c #989FA2",
"8X c #96A5A2",
"9X c #9AAAA4",
"0X c #92ABB7",
"qX c #A3A9A5",
"wX c #A2B0AB",
"eX c #A8B9B2",
"rX c #B3BAB9",
"tX c #A09D8D",
"yX c #9CED85",
"uX c #A1EF8A",
"iX c #B2C2BC",
"pX c #A3BBC5",
"aX c #BACAC6",
"sX c #C2D2CC",
"dX c #CBD9D4",
"fX c #C6CDCD",
"gX c #D3E3DD",
"hX c #DBE7E5",
"jX c #E2EAEA",
/* pixels */
"                                                                                                                                ",
"                                                            5X6X6X6X6X6X6X5X                                                    ",
"                                                          oX&.*.*.*.*.*.&.&.oX                                                  ",
"                                                  5X&.*.&.e.|.|.|.|.|.|.|.|.=.&.H H %X                                          ",
"                                              }.}.}.|. X X X|.|.|.|.|.|.|. X X}.e.}.}.[.{.                                      ",
"                                            oX3.2. Xe.=.%.%.=.%.-.4.e.@.@.@.@.-.-.e.}.3.&..X                                    ",
"                                          oX3.|.3.w.w.%.s.s.:.Q R $.@.m m N M M c _ =.w. X*..X                                  ",
"                                        }.2.|.w.C E :.XXd.+Xs.Q #.R m M M B I ' N m N Z w.|.3.2.                                ",
"                                      }.}.|.w.R B [ 8.+XXXs.;.;.#.T m C V B M M V ' V N T 3.|.}.{.                              ",
"                                      2.|.3.E M V [ 8.XX>.#.#.#.#.T c m M m N A M V ' I M R %.|.=..X                            ",
"                                    &.|.w.! N N V I ;.s.>.{ #.#.Q m m C B B V I B B V I M M R 3. X-.%X                          ",
"                                    *.w.C B W M N m R { } } } { V m m V V ' ] ' V M m m N B B T =.&.%X                          ",
"                                  }.=.C M E { [ I A C C ! W S A A m C C A V V C m N A V ' B m M c =.}.}.                        ",
"                                }.2.w.m E s.8.} { C N M N N N m C C m C m C N C B M M B ' ' B m c =.{.&.                        ",
"                                }.&.@.C Q 8.8.;.#.R B ' B M M m C m m m m M B B I B m C B ' V m m @.-.[.                        ",
"                                }.E m A E ;.;.#.@.R B ] ' ' ' B m m m m A I ' V ] W C m m B B N N N c &.                        ",
"                              >Xt._ m C S Q { } I M M I A V ' ' A m m C ' I V ! { #.! V ' B M V A m c F %.                      ",
"                              J.>Xy.Q m N A W W B B I V A C B ' S N C V ' B N A ;.} [ M V B B B N c Y 1.Y                       ",
"                              #XeXeX$X_ ^ ! A N N I ' V M M B B B M N V B B M C W } ] U N B R v F _ y.t.Y                       ",
"                              @XaXgXeX#X#X:.R R [ ] W M m V I N C m m C N ' I m C A I I m M R ~ ~ @X>Xy.Y                       ",
"                              O.3X<X3XdXdX,Xy.y.t.t.,.m m B V B N m c m A V B m m T K K F F o.,X<X9...y.Y                       ",
"                              z o.J.iXgX9XeXiXiXiXaX3X,.,.5.5.6.,.%.,.,.7.^ J D v 9.#X@X@X@Xi.9.#X0.o.Y h                       ",
"                              j.z 0.<X8X>XeXgXhXhXsXeX8X8X9X<XJ.3X3X9X,X0.1.<.<.<.L.<X9XwX8X@XO.1.<.o.O.y                       ",
"                              m.U.Z.Y O.>X,X9XsXsX,X3XgXdXgXiX<XdXhXhXdXy.#XwX9X9X9.<.<X<XJ.y.9.O.Y Z.b.j                       ",
"                                M.m.F.H.O.~ ~ ....J.9XwXwXsXgXdXgXgXhXgXaXdXaX8X8X#X<.~ ~ Y F O.H.U.c.j                         ",
"                              ^.j.B.E.U.D.G.G.G.G.0.1.<.1.y.@XXXJ.J.t.J.@X@Xt.1.<.%.o.G.G.G.G.D.U.Y.z.y P.                      ",
"                              p p m.I.I.I.R.`.`.`.G.| | X.X.X.X.C.C.C.C.X.| Z.X.X.X.G.`.`.`.R.Y.U.I.z.t t                       ",
"                              t t z.Y.I.I.I.T._./././././././._.yXyXyXyX_./._._./._._._._.R.I.I.I.Y.z.t t                       ",
"                              t t z.I.I.I.I.T._._._._._._._._._._._._._._._._._._._._._.`.T.I.I.I.I.z.t t                       ",
"                              - D.c.l.I.I.I.I.T./._._./.`._./._._._._./._._./._._._._./.T.I.I.I.I.l.k.x.-                       ",
"                              ; ).k.a I.I.I.I.I.R.R.W././._._._._._._._._._._._._.W.W.R.I.I.I.I.I.d j E.=                       ",
"                              8 G.j d S.I.I.I.I.I.I.T./.W./._./._._._._._._._.W.W.T.I.I.I.I.I.I.S.d j x.8                       ",
"                                4 i f a F.Y.I.I.I.I.I.I.I.(././._._._._._._.W.I.I.I.I.I.I.I.I.n.a f i 8                         ",
"                                  j = = j.V.I.I.I.I.I.U.I.E.T.T.R.Q.T.T.T.T.T.I.U.I.I.I.I.I.U.j.= - l                           ",
"                                    q O g.n.I.I.I.I.I.I.I.I.I.I.I.U.I.U.U.I.U.U.I.I.I.I.I.I.n.g.O q                             ",
"                                      3 p m.I.I.I.I.I.I.I.I.I.I.I.I.I.I.I.I.I.I.I.I.I.I.I.I.m.p ,                               ",
"                                        3 k.Y.I.I.I.I.I.I.U.I.I.I.I.I.I.I.I.I.I.I.I.I.I.I.Y.k.3                                 ",
"                                        % s B.Y.I.I.U.I.I.I.I.I.I.I.I.I.I.I.I.I.I.I.I.I.I.B.s %                                 ",
"                                        u.u p n.Y.E.I.I.I.I.I.I.I.I.I.I.I.I.I.I.I.I.Y.I.B.f.u u.                                ",
"                                          q.< j.b.V.V.I.I.I.I.U.I.I.I.I.I.I.I.U.I.F.S.m.f.< u.                                  ",
"                                              O + s v.I.I.I.U.I.I.I.I.I.I.I.I.U.U.j y + O                                       ",
"                                      5.%.7.P o X = : u M.v.n.Y.I.I.I.I.I.n.v.M.u = o X o J 7.a.                                ",
"                                    7.2 P q 5 4 > $ X O i i s k.m.B.B.m.k.s i i O o @ ; 4 4 2 4                                 ",
"                                  7.2 ` 4X!. .( 6 > > > . . . + p j.f.p + . . o > 3 > 3 ..6./ 0 $                               ",
"                                  5.9 ~.q.6.6. .3 3 6 6 7 7 7 3 9 h 9 9 7 7 7 7 6 6 3 3 ( 6./ 0 $                               ",
"                                u.q q ` k  .` r 3 3 6 6 6 6 6 6 7 r r 7 6 6 6 6 6 6 3 3 r ( / 0 8 P                             ",
"                                %.p.7.g y.,.k > > 6 q 9 r U U P d.1X1Xq.U U U k q q 6 > 3 k U D G x e.                          ",
"                              b 0XhXeX7.0Xy.9 > & 4 q g  .!.K.i.fXjXjXdXq.a.!. .k 0 4 & 2 4 q G '.'.*X                          ",
"                            -X=X,. .qXfX6.&X3.. . # > 8  .!.!.6.i.p.L.u.6.!.!. .8 > @ * n n n '.1 {.{.g                         ",
"                          oXG 9.2X3X4X3Xq.~ 1 . . o % 0 P i.!. . . . . . .!.i.K 0 % . # OX-X[.x &X3.w $                         ",
"                          d.r +.q.~.+.g ` e 2 ^ X X % 0 K i.;X ./ ^ / /  .!.i.K 0 % o # {.=X.X1.6XD @ u.                        ",
"                          !.+.+.; @ O o + . 5.  2 # & 9  .K.K. .K k k K  .!.!.( 8 % X o 8 8 3.0XF % u.                          ",
"                          7.X , H.Q.x.y z.h 5.  2 o ; K K.i.6. . . . . . .!.!. .k ; o . o o # & X                               ",
"                            6.: Y.W.b.y u L.  ^ $ 5 ( i.>X;XK.!.K.K.K.K.K.>X>X!.u./ 4 o . . . X                                 ",
"                              A.z z a = U     . & k 6.!.2X;X!.K.K.qXwXK.K.;X:XK.K.9.J % o q ) u.                                ",
"                                m % % J       1 F J P 9.>Xi. .6.t.rXrXi.i.1X1Xi.i.^ 0 0 2                                       ",
"                                              *X=X1.K 9.:Xu. .9.pX_ 5.jXjXjXjXhXhXa.0 F OX                                      ",
"                                              b G &X0XaXdXdXaX0X..2 4 ) ) ) ) ) ..#X0X.XG                                       ",
"                                              5._ t.%X%X8XqX7X.X* o @ . . X X $ x 4.&X3._                                       ",
"                                                  ) . . . . . . . . X > > 4 q K =X&.% J                                         ",
"                                                  %.. . o X o . . . X > $ $ $ 1 *X                                              ",
"                                                     .. % 2 $ #   J $ J 5.7.^ q b                                               ",
"                                                      5.a.$Xu.a.  5.& ^ p.+Xe.r o                                               ",
"                                                                  ) & L L L L D X                                               "
};
