/* XPM */
static char *_2c4b092d4e84264a032f98d71fb0e3bP1lla3ZZk6gbxFBO[] = {
/* columns rows colors chars-per-pixel */
"64 64 230 2 ",
"   c None",
".  c #010201",
"X  c #0B0B0B",
"o  c #060805",
"O  c #0B1606",
"+  c #11130D",
"@  c #0F0E11",
"#  c #0F1211",
"$  c #131413",
"%  c #151915",
"&  c #1B1C1B",
"*  c #171719",
"=  c #0B2304",
"-  c #132908",
";  c #1F231D",
":  c #1D3311",
">  c #133204",
",  c #24241C",
"<  c #27291D",
"1  c #263B1D",
"2  c #1C1E22",
"3  c #1E2225",
"4  c #232423",
"5  c #2A2C2B",
"6  c #282A25",
"7  c #332D29",
"8  c #2C3528",
"9  c #37342D",
"0  c #2C3238",
"q  c #3A3D3B",
"w  c #383834",
"e  c #262C34",
"r  c #443F3B",
"t  c #174704",
"y  c #1C540D",
"u  c #224C08",
"i  c #255906",
"p  c #254715",
"a  c #2B541D",
"s  c #2A6705",
"d  c #2D7602",
"f  c #317A07",
"g  c #266314",
"h  c #367915",
"j  c #356F18",
"k  c #325D27",
"l  c #354B30",
"z  c #386829",
"x  c #3A7323",
"c  c #3C6433",
"v  c #41433C",
"b  c #425437",
"n  c #437232",
"m  c #3C3A49",
"M  c #293746",
"N  c #233D65",
"B  c #1B3351",
"V  c #453A4D",
"C  c #4B3A4E",
"Z  c #43374C",
"A  c #543D4D",
"S  c #5C3E4D",
"D  c #4C3B51",
"F  c #443D51",
"G  c #533C50",
"H  c #5B3F51",
"J  c #603F49",
"K  c #3C4647",
"L  c #354358",
"P  c #3A4869",
"I  c #2E4B67",
"U  c #424542",
"Y  c #474947",
"T  c #5D414B",
"R  c #53424A",
"E  c #47584C",
"W  c #454254",
"Q  c #4B4355",
"!  c #4C4A5D",
"~  c #4D4658",
"^  c #544455",
"/  c #58495A",
"(  c #4C5D53",
")  c #4B5756",
"_  c #535453",
"`  c #575B58",
"'  c #5A584B",
"]  c #63424B",
"[  c #654954",
"{  c #68545A",
"}  c #72565A",
"|  c #605C4A",
" . c #486B49",
".. c #5C625B",
"X. c #53665B",
"o. c #577453",
"O. c #656659",
"+. c #6D6956",
"@. c #534E61",
"#. c #4A5666",
"$. c #5D5162",
"%. c #575A68",
"&. c #4B5773",
"*. c #525B74",
"=. c #565F7B",
"-. c #474E68",
";. c #675766",
":. c #6A5968",
">. c #5B6A65",
",. c #5A6566",
"<. c #5A6477",
"1. c #4C6170",
"2. c #636463",
"3. c #676B69",
"4. c #6B726C",
"5. c #64786B",
"6. c #646B7D",
"7. c #626776",
"8. c #6E7C79",
"9. c #697674",
"0. c #717571",
"q. c #747B74",
"w. c #7A7C7B",
"e. c #747D7B",
"r. c #75696A",
"t. c #867572",
"y. c #39880B",
"u. c #3C8812",
"i. c #3C9109",
"p. c #3F842B",
"a. c #459A13",
"s. c #49A713",
"d. c #4A9031",
"f. c #499032",
"g. c #54A828",
"h. c #58B729",
"j. c #57AC37",
"k. c #5EB93A",
"l. c #4EA527",
"z. c #60BE3B",
"x. c #63A838",
"c. c #5FC035",
"v. c #64C53A",
"b. c #528A47",
"n. c #5E8E52",
"m. c #579249",
"M. c #619C55",
"N. c #5CA446",
"B. c #63BB48",
"V. c #6EB157",
"C. c #77827B",
"Z. c #72A863",
"A. c #6CCC4B",
"S. c #68C547",
"D. c #73CA5B",
"F. c #7ADA5D",
"G. c #72D353",
"H. c #72CA4B",
"J. c #75C363",
"K. c #7DC363",
"L. c #7ED964",
"P. c #7EE061",
"I. c #8C866C",
"U. c #82DF69",
"Y. c #81DD67",
"T. c #8FD37D",
"R. c #84E26C",
"E. c #83E467",
"W. c #8DE873",
"Q. c #94E97A",
"!. c #80DA5F",
"~. c #2867AB",
"^. c #1E5093",
"/. c #566883",
"(. c #567188",
"). c #646C82",
"_. c #6D7585",
"`. c #6A7283",
"'. c #68718A",
"]. c #787882",
"[. c #70798D",
"{. c #627CA2",
"}. c #887681",
"|. c #7B8986",
" X c #798495",
".X c #7E919C",
"XX c #6D8DAF",
"oX c #4798D5",
"OX c #4391CF",
"+X c #76A9D3",
"@X c #848A87",
"#X c #83938D",
"$X c #8D948E",
"%X c #858C99",
"&X c #879694",
"*X c #959A94",
"=X c #92A29C",
"-X c #9BA29D",
";X c #878EA4",
":X c #8A9AA6",
">X c #939BAE",
",X c #9BA9A5",
"<X c #8FAAB8",
"1X c #A4AAA7",
"2X c #A3B1AC",
"3X c #ABB9B6",
"4X c #B3BBB9",
"5X c #B6B2A1",
"6X c #B3B09E",
"7X c #8FCF80",
"8X c #9CED85",
"9X c #9FEF88",
"0X c #9DF484",
"qX c #A6F390",
"wX c #A9F893",
"eX c #A1EF8B",
"rX c #B2C1BC",
"tX c #91ADC4",
"yX c #82BDE9",
"uX c #819FCB",
"iX c #BCCAC7",
"pX c #B5CAD5",
"aX c #ACC5D9",
"sX c #C5CBCB",
"dX c #CBDAD7",
"fX c #D0DAD8",
"gX c #D3E3DD",
"hX c #CEDDE4",
"jX c #DBE6E5",
"kX c #E5EFEE",
/* pixels */
"                                                                                                                                ",
"                                                        ;X;X;X;X;X;X;X%X                                                        ",
"                                                       X*.*.&.*.*.*.*.&. X                                                      ",
"                                                &.&.&.6._._._._.]._._._./.P -.P :X                                              ",
"                                            =.).`.`.`._.`._.`._._._.`.`.`.).).`.<.&./.                                          ",
"                                          6./.`.`.%.*.%.%.;.! ).7.! ! ~ ! ! ! 6.'.<./.'.                                        ",
"                                        <._.7.%.7.%.:.r.;.@.G -./ D V C A C m @.%.<.'.*.[.                                      ",
"                                      =._.7.~ Q ;.].}.}.7.$.$.D Z D C A T S D V Z W 7.[.&.[.                                    ",
"                                    6._.7.D C [ :.}._.:.{ ;.$.W m G H G C C S ] S C F <.`.<./.                                  ",
"                                  )._.7.Q D ] [ :.].:.;.@.@.@.F m V V V D G C S ] ] D W <.`.6.).                                ",
"                                  '.7.~ C C A A ;.:.:.} { $./ V V C G A ] J A C A R D C ~ <.6.P                                 ",
"                                =.<.D G ^ ^ C V D [ [ } } [ H V V H S ] ] J G C V C C A C D 7.&.>X                              ",
"                                ).D D ! $.} [ G D D D G S D D V C C C H G C V C G J ] A C V L 6.&.;X                            ",
"                              *.).D ! :.t.:.;.G D G D D V V D D C C V C V C S C D G S ] R Z W 6.-..X                            ",
"                              -.@.D ~ :.r.$.@.~ G ] G G A D V V V V C A S S J A V V D S C Z F ! P ;X                            ",
"                            %X#.Z D H $.$.[ / G G ] S J ] A C Z V C G ] S H [ ^ D A A A A D D Z m '.                            ",
"                            C.5.W D G ^ / } [ C C S G G S ] A V V A ] S G G { $.^ S ] C G R C L L K 5.                          ",
"                          $X&X&X4.W F G T ^ C A ] S G D A S S C C S ] C C H ;.} / C G A C V V K >.>.>.                          ",
"                          &X2XsX3X9.,./ C Z A J J A V R A C A C D G C S A D ^ [ ] T D G Y m K |.|.>.>.                          ",
"                          C.,XiX3X,X2X|.@.` { { / V Z R ] A V Z m C A J A Z C V R R m U %.5.5.C.C.>.>.                          ",
"                          o.5.@X#XdXdX3X#X#X#X&XC.) W ~ / { ~ K W ^ { T Y Z Z E ( ( ( ( `.=X.X( >.X.X.                          ",
"                          x.n 3.-XdX=X,XfXdXdXgXrXC.C.C.C.9.C.C.8.8.0.( E K E |.=X=X=X=X5.X.C.5.( l c                           ",
"                          x.g.M.>.5. X,XrXjXjXrX=XiXiXiX,XC.rXiXiX3XX.9.|..X|.>.|.,X,X#XC.X.L ( m.p.k                           ",
"                            B.j.b.b.n.9.C.#X&X#X=XiXiXgXdXrXgXkXkXdX,XrXrX2X2X5.>.5.9.>.X.o.m.b.f.m.                            ",
"                            V.s.c.A.b. . . . .9.#X|.|.,XrXrX3X3XrX3XrXrX,X|..XC.o. .o. . .b.S.j.g o.                            ",
"                          x.s.a.a.c.S.B.A.F.L.M.E E E ( E ( ( ( (  .E ( E E  .K M.L.L.A.S.B.B.y t t c                           ",
"                          z d.h.i.g j.A.A.G.G.D.J.J.D.J.J.J.T.7X7XT.V.J.J.J.D.J.D.G.G.A.h.u.g y.y.s k                           ",
"                          z N.!.l.y u.v.B.z a k c c p.B.P.R.Q.Q.Q.Q.W.P.B.p.z z k a z B.h.d t l.A.f.c                           ",
"                          l Z.Q.B.y d a.z . X & % # = h A.E.U.U.U.E.E.A.x O % % * X . z a.f y S.0XV.l                           ",
"                          6 n.0XD.y y.s . X K ` W l X t g.L.U.R.E.E.!.g.y % ) ) Y e . . s f y D.0Xn.5                           ",
"                          5 n E.D.y y.y X Y E 5 # X . . t g.F.R.R.F.l.> 6 E Y ; X o . . i y.y D.E.n 6                           ",
"                             .j l.y f y o 3 ; X . . . * < u D.E.R.D.y o @ 4 % . . o 5 o i f y g.h E                             ",
"                              b i > f d - . . . . . $ 6 * O V.R.R.V.X . . . . . @ 4 6 : f f > i l                               ",
"                                ; . s s.y.= . . . . 5 , O 8 J.W.W.K.1 O o . . . 3 5 = u.s.s . 4                                 ",
"                                  & s h.z.y.> . . o X i g.7XeXeXqX0XT.j.u . . . o > i.k.h.s ;                                   ",
"                                    b x A.z.N.m.M.Z.Z.K.W.wXqXqXwXqXwXW.D.Z.Z.M.m.N.k.A.j b                                     ",
"                                    _ p k.A.E.R.W.0XwXwXwXqXqXQ.Q.qXqXwXwXwX0XW.W.P.A.v.p _                                     ",
"                                    w.p u.k.F.E.E.R.8X9X9X9X9XL.L.9X9X9XeX8XR.R.P.F.k.u.p w.                                    ",
"                                        - a.k.F.L.R.E.R.R.R.R.R.Y.U.R.R.R.R.U.Y.D.k.a.-                                         ",
"                                          : - j h.G.R.R.R.U.R.E.U.U.U.R.R.Y.G.p.p - :                                           ",
"                                    w.  4.X o - u z j.v.v.!.F.F.F.L.F.A.v.j.z - o o X r.  C.                                    ",
"                                  6 3 6 4 4 3 @ o X i d h d.d.d.d.d.d.f d i o o + ; 4 4 6 6 r                                   ",
"                                & w _ ....` 9 , , , + @ + % % & % & % $ O + , , ; 9 ` ,...4.t.<                                 ",
"                                $ w K v U v 6 , < 9 Y (.XX3XpXsXsXpX3XXX(.Y 7 6 , w O.3.O.+.I.;                                 ",
"                                $ w @X2X2X2X=X[.#.w ` >.6. XhX3X@X@X].<.7...9 < , 8 v Y ' 3.O.| O.                              ",
"                                * 3.fXkXsXsX3XXX&.Y 3.' 9 R aX].R 2.9 e L 1.L M e , 6 7 v Y U +.r Y                             ",
"                                M <XjX4X4.0.) 5 7 ` @Xq...5.jX*X$XsX' N ^.~.~.~.N % < 7 9 9 w r l 0 Y                           ",
"                            aXtX<X2.3.$X5X5XI.I.| 6 q.C.O.q.jX,X` ` ..I ~.OXOXoXN o % < < 7 9 q q <.XXuX                        ",
"                             X-.9.+.w 6 v v w 9 < X 0.w...0.jX*X|.1X) N ~.oXoXoXI . o @ o 0 XX<X<X.X1.L                         ",
"                            ,., | ' b b l k = o o $ q.C...0.dXiX1X,X( e {.yXoX+X&.* O.2.2.,.(. X>X6.& O                         ",
"                            t.v +.< Z.wX0XY.g - 4 5 C.q...4.aXhX1X` ..4 >.pX+XaX>.U         . o 8 1 O o                         ",
"                                ; j.Q.9XY.S.: & q U I.q...5.aX%.2.sX0.%.w Y dX_ o U         o . i a.d +                         ",
"                                  a N.E.B.p % & v q.0.3...4.hX` X ;.iX@X_ v U , @ & `         $ O > p                           ",
"                                    b x a . # % v @X4...C.-X$X,.0 0 C.1X$X` w 6 ; @ X           0.0.                            ",
"                                    w.0 e o # ; v @X4.X.*XgX4 ) .X%.3 $X2X$X1XY * $ 0                                           ",
"                                          * # 8 ..$X0.O.-XgX4 ~ .X X%.2 3.kXjX3.3 M XX                                          ",
"                                          {.XX.XaXjXjXfXkXjX6 X 5 l Y + $ q q :X<X(.M                                           ",
"                                          P P &.7.w.w.w.].3.$ . o 7 E v 4 3 -.1.*.#.                                            ",
"                                          ` Y 4 . . . . . . . . X 6 Y R ) /.+X%.Y w.                                            ",
"                                                X . X @ X . $ o @ , * + L XXXX                                                  ",
"                                                  X 2 5 & *   _ @ e q m m M e                                                   ",
"                                                              2.X q 0.}.) 3 .                                                   ",
"                                                                { |.4XsX-X4.2.                                                  ",
"                                                                                                                                "
};
