/* XPM */
static char *_0301c326392432fdbaa046554060bbbRKPaFgr29B7knK7V[] = {
/* columns rows colors chars-per-pixel */
"64 64 195 2 ",
"   c None",
".  c #131216",
"X  c #16151B",
"o  c #19161C",
"O  c #1B1A1C",
"+  c #161A19",
"@  c #201D1F",
"#  c #262B1E",
"$  c #191722",
"%  c #1D1B24",
"&  c #1F1C29",
"*  c #211F26",
"=  c #211E2B",
"-  c #242226",
";  c #2A2625",
":  c #2A2B25",
">  c #24222A",
",  c #29262B",
"<  c #2C2B2A",
"1  c #332E2D",
"2  c #2B3422",
"3  c #2F302A",
"4  c #2C3826",
"5  c #383620",
"6  c #353C26",
"7  c #34332C",
"8  c #39362E",
"9  c #313828",
"0  c #393A2C",
"q  c #262232",
"w  c #292534",
"e  c #2D2935",
"r  c #2B2639",
"t  c #2E2A3B",
"y  c #322C33",
"u  c #312C3D",
"i  c #343234",
"p  c #3B3433",
"a  c #3C3C34",
"s  c #35323C",
"d  c #3A353B",
"f  c #3E3A3C",
"g  c #423F2D",
"h  c #443E35",
"j  c #413C3C",
"k  c #3B432C",
"l  c #384725",
"z  c #3E4930",
"x  c #3F4434",
"c  c #414F27",
"v  c #42432C",
"b  c #434C2C",
"n  c #4D522D",
"m  c #424532",
"M  c #464A30",
"N  c #42443E",
"B  c #4D4338",
"V  c #4F583B",
"C  c #4D5436",
"Z  c #545432",
"A  c #5C5C39",
"S  c #53602F",
"D  c #5A6E28",
"F  c #536B28",
"G  c #5A7926",
"H  c #5A6136",
"J  c #606B2C",
"K  c #686E36",
"L  c #63633B",
"P  c #666738",
"I  c #667439",
"U  c #677933",
"Y  c #727335",
"T  c #72763C",
"R  c #2F2A40",
"E  c #332E43",
"W  c #352F49",
"Q  c #353045",
"!  c #3B3443",
"~  c #3E3A42",
"^  c #363149",
"/  c #39334D",
"(  c #3F3C4D",
")  c #3C3551",
"_  c #413B44",
"`  c #403952",
"'  c #464344",
"]  c #4B4542",
"[  c #4C464A",
"{  c #504C44",
"}  c #525B40",
"|  c #585F40",
" . c #585549",
".. c #565349",
"X. c #5B5950",
"o. c #6A6D49",
"O. c #676646",
"+. c #7B6D4D",
"@. c #756F46",
"#. c #6B7345",
"$. c #7F7146",
"%. c #767A44",
"&. c #7E714C",
"*. c #847B49",
"=. c #877E48",
"-. c #658A2C",
";. c #739A2D",
":. c #7F8034",
">. c #74833E",
",. c #7A823A",
"<. c #758E39",
"1. c #798A3E",
"2. c #7B8241",
"3. c #7D8841",
"4. c #84863C",
"5. c #8C8E3E",
"6. c #8D993B",
"7. c #91933D",
"8. c #88AB2C",
"9. c #8DA134",
"0. c #8CA836",
"q. c #88A239",
"w. c #90AF32",
"e. c #9BAC3B",
"r. c #96A13E",
"t. c #9BB433",
"y. c #98BA35",
"u. c #A2BA35",
"i. c #A2B33D",
"p. c #A6B63D",
"a. c #9DC62F",
"s. c #9EC637",
"d. c #A5C536",
"f. c #A7CC37",
"g. c #AACE37",
"h. c #A4C33C",
"j. c #ABC43E",
"k. c #A6CE38",
"l. c #ADCD3B",
"z. c #B3CD3D",
"x. c #AAD434",
"c. c #AED339",
"v. c #A8D435",
"b. c #B1D53C",
"n. c #898445",
"m. c #8C8B44",
"M. c #87824A",
"N. c #8D854A",
"B. c #878C4C",
"V. c #8E8848",
"C. c #868C45",
"Z. c #918F45",
"A. c #91864A",
"S. c #849040",
"D. c #8E9144",
"F. c #8A9C42",
"G. c #929343",
"H. c #959843",
"J. c #9A9C46",
"K. c #939449",
"L. c #9C9A49",
"P. c #98984A",
"I. c #8E8352",
"U. c #9C9454",
"Y. c #A59F53",
"T. c #9CA444",
"R. c #90AF40",
"E. c #9EAC42",
"W. c #9AA44B",
"Q. c #A2AB45",
"!. c #A6A948",
"~. c #A4B442",
"^. c #ABBE42",
"/. c #AAB648",
"(. c #AEB440",
"). c #B3BA48",
"_. c #B5AD52",
"`. c #BBB757",
"'. c #BCBC51",
"]. c #ABC442",
"[. c #B0C742",
"{. c #B4CB40",
"}. c #BACC45",
"|. c #BEC14C",
" X c #BCC746",
".X c #B1D740",
"XX c #C6C74D",
"oX c #C2CB4C",
"OX c #CDD44E",
"+X c #C8D849",
"@X c #C7C654",
"#X c #D1CE56",
"$X c #CFD351",
"%X c #D7D657",
"&X c #D5DE51",
/* pixels */
"                                                                                                                                ",
"                                            i 8                                                                                 ",
"                                        +.z > & ,                                                                               ",
"                                      &.3.z ; & - * h                                                                           ",
"                                      `.2.9 - < h > *                                                                           ",
"                                    I.@XH 3 - 3 { q = ,                                                                         ",
"                                    &.K.M < - ; j E u u w                                                                       ",
"                                    +.D.b < - & y / / ^ u 1                                                                     ",
"                                      C.b < - & 1 / ) W W y                                                                     ",
"                                      2.b , - & , / ) ) ^ E                                                                     ",
"                                      @.b - - - * Q W ) / ^                                                                     ",
"                                      K b ; - & * u E ) ) / _                                                                   ",
"                                      P b ; , * * e E ) ) / W                                                                   ",
"                                      A c < - = * = W / ) ) / !                                                                 ",
"                                        c < = * % = E / ) ) ^ ^                                                                 ",
"                                        l : * * = = R W ) ) ^ ^ !                                                               ",
"                                        # ; - * = q = W ) / ^ ^ E                                                               ",
"                                        o - > > e / q q ) / ^ ^ / _                                                             ",
"                                      8 . $ > e E E E & E / W W / E                                                             ",
"                                      ; o o * u / / W q = / E W / ^ _                                                           ",
"                                  *.H 3 - * * w W / W E $ t ^ E ^ ^ Q                                                           ",
"                                  K.S b < > > * u / / ) q $ u E ^ / ^                                                           ",
"                                U.~.U V e > * = q W / ) / $ o t ^ / ^ s                                                         ",
"                                Y.6.S.{ R > > > = t ) ) ) q o s t / ^ ^                                                         ",
"                                U.,.A ( ^ r > > q > ^ ) ) R > [ s t ^ ^ s                                                       ",
"                                I.T m _ ^ E q > E w r / ) ) r d ! w r W E                                                       ",
"                                  P 0 _ ^ ^ t t ^ ^ & E ) ) / u ! E & E E f                                                     ",
"                                  A 7 _ / ^ Q / / ^ r q ) ^ ) R E ^ q q u y                                                     ",
"                                  L 7 d / / / / ^ / W & E / / ^ E ^ ^ & q , 7                                                   ",
"                                  O.0 < ! / / E / ) ) q q / ) / / ^ ^ w & e < , 1                                               ",
"                                    0 , Q / / ^ / ) ) E & E / ) / ^ / ^ % x ' w - , 1                                           ",
"                                    7 : e / / ^ ^ / ) / = & E ) / / / ) r k V s w > > 1                                         ",
"                                    7 : , E ^ ^ E / ) ) E O : d ^ ) ) ) ^ 3 V ( E e - ,                                         ",
"                                    8 < , Q / E E / ) ) / : 7.%.u E ^ ) ) R i [ / E , > h                                       ",
"                                    8 < q R ^ E t ^ ) ) / 6 Q.o.Q ^ W ) / / q s ` / w , 1                                       ",
"                                    8 3 , t E R t E ) ) / k C.' s / / ^ / / E q / ) t > ,                                       ",
"                                    a < , w E E E E ) ) Q k #.d t ^ ) / / / / r u ) t > > a                                     ",
"                                    7 < , w E E E u / ) Q d  .Q t E ) ) / ^ / ^ E ! ^ > * <                                     ",
"                                  a ; : > > E W E t E ) W d [ s R E / ) / ^ / / / E / u * ,                                     ",
"                                i * > > > > u E E E t ) ^ ~ [ Q u t ^ ) / ^ ^ / E / / E > * d                                   ",
"                              p * * * = - > t ^ R E t ^ ) ' o.' s u E / ) ^ E ) ^ ) ^ ^ q - ,                                   ",
"                              - 2 1 > > > q E ) r r t E ) ( o...u t u ^ ) Q E / ^ / / ^ t * >                                   ",
"                              2 I N , e t u E / R w E t ^ ) ' ..s u u E / / E Q / ^ ) / E - * i                                 ",
"                              6 >.N e E / E E ^ ^ > t t E ) ! ' Q u u t E ) E t ^ ^ ^ ^ ^ w * >                                 ",
"                              2 I ' t ^ / ^ ^ ^ ^ w w u r ^ / ! Q i t i E / ^ t E Q ^ ^ ^ r * -                                 ",
"                              : b f u ^ ) ) / ^ ^ t = t t R / ^ E t u t R ^ E t t E E ^ E R - * p                               ",
"                              : - N u ^ / ) ) E ^ E > e t t ^ / E R t t t E ^ t e E E ^ R r > * ,                               ",
"                              < @ 7 ! E ) ) ) E ^ Q q e u t ^ / / E t t t R ^ t w t e e R q w - > B   &.*.                      ",
"                              1 : O d E / / ) E E Q & r t t s ^ ^ / ( x s t E t w , g d t q q > - p +.'.}.m.                    ",
"                              7 1 , , ! E / ) W r t & t u t t ^ / X.W.W.| R R E t t 0 { r q > = * p =.OXy.E.      A.            ",
"                V.            p < d * s E ^ ) ) r = q t u e t R / B.&Xk.R.N r r u u < N u = = > - h A.|.d.T.    @XoXT.A.        ",
"              %X+XH.  =.~.N.    < f w e E ! / / E $ r E t t u j ' %.[.y.s.} s = t t * 7 u & X * 1 Y XX!.9.P     p.u.}.XX'.!.L.  ",
"              $Xu.p.=.T.b.T.  p - e t e u E / / ^ & w R t u L ).~.1.q.v.k.F.2.3 & $ ; @ , - $ X g '.+Xw.G D J Y 4.4.m.n.        ",
"              L.t.d.K.Q.c.~.  , * , s t w t E ^ ^ q q t e d J.^.w.f.y.k.c.b.y.l + . o . $ - - o 5 p.l.l.h.i.i.i.7.              ",
"                r.g.J.4.c.6.N ! & - a ! u w e E Q t = r < C 0.8.8.a.v.c.x.x.v.;.F : @ - ; , 1 1     L.L.N.                      ",
"              A.L.p.4.g K n j Q w 2 <.I s , > e E t q & 9 q.a.v.x.f.d.d.t.d.0.r.m.                                              ",
"          _.#X&XoXY 0 O ; O * > 4 -.s.<.i - . * w e , < Z 4.5.Z.D.=.                                                            ",
"  Z.!.'.XXOX}.l.6.              ,.]..XU < + . ;     B Y e.T.$.                                                                  ",
"      V.Q.H.G.n.                K./.E.Z : 1       M.L.].a.g.T.                                                                  ",
"                                              M.P.J.^.[.j.j.j.T.G.                                                              ",
"                                                                                                                                ",
"                                                                                                                                ",
"                                                                                                                                ",
"                                                                                                                                "
};
