/* XPM */
static char *_491834697994626de609fffebd72667jlBQyZ8XbLacIcGE[] = {
/* columns rows colors chars-per-pixel */
"64 64 193 2 ",
"   c #131216",
".  c #16151B",
"X  c #19161C",
"o  c #161A19",
"O  c #1B1A1C",
"+  c #201D1F",
"@  c #262B1E",
"#  c #191722",
"$  c #1D1B24",
"%  c #1F1C29",
"&  c #211F26",
"*  c #211E2B",
"=  c #242226",
"-  c #2A2625",
";  c #2A2B25",
":  c #24222A",
">  c #29262B",
",  c #2C2B2A",
"<  c #332E2C",
"1  c #2B3422",
"2  c #2E3428",
"3  c #353A25",
"4  c #34332C",
"5  c #39352E",
"6  c #393A2C",
"7  c #262232",
"8  c #292534",
"9  c #2D2935",
"0  c #2B2639",
"q  c #2E2A3B",
"w  c #322C33",
"e  c #312C3D",
"r  c #343234",
"t  c #3B3532",
"y  c #3C3C34",
"u  c #35323C",
"i  c #3A353B",
"p  c #3E3A3C",
"a  c #413D2E",
"s  c #453D35",
"d  c #423C3C",
"f  c #493F39",
"g  c #384725",
"h  c #3B432C",
"j  c #3F4732",
"k  c #414F27",
"l  c #434C2C",
"z  c #4D522D",
"x  c #55552F",
"c  c #434433",
"v  c #4A4235",
"b  c #464A30",
"n  c #42443E",
"m  c #4C423A",
"M  c #51463D",
"N  c #554A3E",
"B  c #4E5538",
"V  c #545432",
"C  c #5A523B",
"Z  c #5C5C39",
"A  c #635B39",
"S  c #55682A",
"D  c #5A7926",
"F  c #5A6136",
"G  c #676737",
"H  c #63633B",
"J  c #736A3F",
"K  c #677933",
"L  c #667439",
"P  c #727335",
"I  c #73743C",
"U  c #2F2A40",
"Y  c #332E43",
"T  c #352F49",
"R  c #353045",
"E  c #3B3443",
"W  c #3E3A42",
"Q  c #363149",
"!  c #39334D",
"~  c #3F3C4D",
"^  c #3C3551",
"/  c #413B44",
"(  c #403952",
")  c #464344",
"_  c #4B4542",
"`  c #4D464A",
"'  c #534A44",
"]  c #5B4E42",
"[  c #5E5043",
"{  c #525B40",
"}  c #575945",
"|  c #585549",
" . c #5B5950",
".. c #635544",
"X. c #685743",
"o. c #6B5A47",
"O. c #6D5C49",
"+. c #6E5D4A",
"@. c #705F45",
"#. c #705F4B",
"$. c #676646",
"%. c #6F6044",
"&. c #6A6D49",
"*. c #726245",
"=. c #756B46",
"-. c #7A6D45",
";. c #71604B",
":. c #72614B",
">. c #73634B",
",. c #72614C",
"<. c #776849",
"1. c #7A6C4D",
"2. c #7E7246",
"3. c #767A44",
"4. c #7E714B",
"5. c #807645",
"6. c #827A44",
"7. c #827549",
"8. c #847A49",
"9. c #897C4B",
"0. c #887A52",
"q. c #658A2C",
"w. c #739A2D",
"e. c #78843B",
"r. c #758E39",
"t. c #7B8241",
"y. c #7D8841",
"u. c #84863C",
"i. c #8C8E3E",
"p. c #8D993B",
"a. c #91933D",
"s. c #88AB2C",
"d. c #8DA134",
"f. c #8CA836",
"g. c #88A239",
"h. c #97A83A",
"j. c #9BB433",
"k. c #98BA35",
"l. c #A3B63A",
"z. c #9DC62F",
"x. c #9EC637",
"c. c #A5C536",
"v. c #A7CC37",
"b. c #AACE37",
"n. c #A7C53C",
"m. c #ADCD3B",
"M. c #B3CD3D",
"N. c #A8D435",
"B. c #AAD434",
"V. c #AED339",
"C. c #B1D53C",
"Z. c #878143",
"A. c #898445",
"S. c #8B8A43",
"D. c #8A8A47",
"F. c #87824A",
"G. c #8D834B",
"H. c #878C4C",
"J. c #918F45",
"K. c #91864A",
"L. c #879641",
"P. c #929343",
"I. c #9A9C46",
"U. c #939449",
"Y. c #98984A",
"T. c #9C9A49",
"R. c #8E8352",
"E. c #9C9454",
"W. c #A59F53",
"Q. c #9CA444",
"!. c #90AF40",
"~. c #9EAC42",
"^. c #9AA44B",
"/. c #A5A947",
"(. c #A4B442",
"). c #ACB544",
"_. c #B3BA48",
"`. c #B5AD52",
"'. c #BBB757",
"]. c #BCBC51",
"[. c #ABC442",
"{. c #B6C744",
"}. c #B4CB40",
"|. c #BACC45",
" X c #BEC14C",
".X c #B1D740",
"XX c #C6C74D",
"oX c #C2CB4C",
"OX c #CAD64B",
"+X c #D1CE56",
"@X c #CFD351",
"#X c #D7D657",
"$X c #D5DE51",
/* pixels */
"o.o.O.o.o.o.O.o.o.o.o.o.o.o.o.o.o.O.O.O.O.O.X...>.O.O.O.O.O.O.O.O.O.o.o.o.o.O.o.o.o.o.o.O.o.O.o.o.o.o.O.o.o.o.O.o.o.O.o.o.o.o.O.",
"o.o.o.o.o.o.o.o.O.o.o.o.o.o.o.O.O.O.o.O.o.' 4 t [ O.+.+.+.O.O.O.O.O.O.O.o.o.o.o.O.o.o.o.o.o.o.o.o.o.o.o.O.o.o.o.o.o.o.o.o.o.o.o.",
"o.o.o.o.o.o.o.o.o.o.o.o.o.o.o.O.O.o.+.,.=.b * & > m O.O.+.+.O.O.O.O.o.X.o.o.o.o.o.o.O.o.o.O.o.o.o.o.o.o.o.o.o.o.o.o.o.o.o.o.o.o.",
"o.o.O.o.O.o.o.o.o.o.o.o.o.o.o.O.O.O.,.4.y.j : & = : y o.#.+.+.O.o.O.O.O.o.o.o.O.o.o.o.o.o.o.o.o.o.O.o.o.O.o.o.O.o.O.o.o.o.O.o.o.",
"o.o.o.o.O.o.O.o.o.o.o.o.O.o.O.O.O.+.0.'.t.4 = , d : * s o.O.+.+.O.O.O.O.o.o.o.O.o.O.o.o.o.o.o.o.o.o.o.o.o.O.o.o.o.O.o.o.o.o.O.o.",
"o.O.o.o.o.o.o.o.o.o.o.o.o.o.O.O.o.+.R. XF 2 = 3 ' > : : v o.+.+.O.O.o.o.O.o.o.o.o.o.o.o.o.O.o.o.o.O.o.O.o.o.o.o.o.o.o.o.o.o.o.o.",
"o.o.o.o.o.O.o.o.o.o.o.o.O.o.o.O.+.+.4.Y.b , = = p Y q Y 8 f O.#.O.O.O.O.O.o.o.o.o.o.o.o.o.O.O.o.o.O.o.o.o.o.o.O.o.o.O.o.o.o.o.o.",
"o.o.O.o.o.o.o.o.o.o.o.o.o.o.o.O.+.+.1.D.l , = % w ~ Q Q U 9 ..#.+.+.O.O.o.O.O.o.o.O.o.o.o.o.o.o.o.o.o.o.o.O.o.o.o.O.o.o.o.o.O.o.",
"o.o.O.o.o.O.o.o.o.O.o.o.O.O.o.O.+.+.<.D.l , = % < ( ! ! T e [ #.+.+.O.O.O.o.o.o.o.o.o.o.o.O.o.o.O.o.o.o.o.O.o.o.o.o.o.o.o. .O.O.",
"o.o.o.o.o.o.o.O.o.o.o.o.O.O.o.O.+.O.>.t.l - = = * ! ^ ! Q Y [ #.#.+.+.O.O.o.o.o.O.o.o.o.o.o.o.o.o.o.o.o.o.o.o.o.O.o.O.o.o.O.o.O.",
"o.O.o.o.o.o.o.o.o.o.O.o.o.O.O.O.O.,.,.3.j = : % & E T ! ! T ` #.#.+.+.O.O.O.O.o.o.o.O.o.o.o.o.o.o.o.o.o.o.o.o.o.o.o.O.o.o.o.o.o.",
"o.o.o.o.O.o.o.o.o.o.o.o.O.o.O.O.O.O.,.G k - = : & e T ( ! ! E O.#.#.+.O.O.o.O.o.O.o.o.o.o.o.O.o.o.o.O.o.o.o.o.o.o.o.o.o.o.o.o.O.",
"o.o.O.o.O.o.o.O.o.o.o.o.o.o.O.O.#.,.#.G l - * & & 9 Y ( ^ ^ T ' #.#.O.O.O.O.O.O.o.o.o.o.o.o.o.o.o.o.o.o.o.o.o.o.o.o.o.o.o.o.o.o.",
"o.o.o.o.o.o.o.o.O.o.o.O.O.O.O.O.O.O.,.Z l - - * & * T ! ^ ^ Q E O.#.#.O.O.O.O.O.o.o.O.o.o.o.o.O.o.O.o.o.o.o.o.o.o.o.O.o.O.o.o.o.",
"o.o.o.o.o.o.o.o.o.o.o.o.O.O.O.O.O.,.#.Z k , * & & * U ! ^ ^ ! Y ' #.#.#.#.O.O.O.O.o.o.o.o.o.o.o.o.o.o.+.O.o.o.o.o.o.o.o.o.o.O.o.",
"o.o.O.o.O.o.o.o.o.o.o.o.o.O.O.O.O.#.,.C g ; & & * * U T ^ ! Q Q E O.#.#.O.O.O.O.O.o.o.o.O.o.o.o.O.O.O.O.o.o.o.o.o.O.o.O.o.o.o.o.",
"o.o.o.o.O.o.o.o.o.o.o.o.o.o.o.+.+.+.#.] ; ; = & : 7 * Y ^ ! Q ! T ] #.+.#.o.O.O.O.o.o.o.o.o.o.o.o.o.o.o.o.o.o.o.o.o.o.o.o.o.o.o.",
"o.O.o.o.o.o.O.o.o.o.o.o.o.o.+.+.+.,.#.] O $ : : 0 Q 8 7 ^ T T ! T / o.+.#.#.O.O.O.O.O.o.o.o.O.o.o.o.o.O.o.o.o.o.o.o.o.o.+.o.o.o.",
"o.o.o.o. .o.o.o.o.o.o.o.o.o.+.+.+.,.,.t   # : 9 Y Q Y % T ^ Y T ( U / 7.+.+.O.O.o.o.o.o.o.o.o.o.o.O.o.o.o.O.o.o.o.o.o.o.o.o.o.+.",
"o.o.O.o.O.o.o.o.o.o.o.o.+.o.o.+.+.,...: X X = e Q ! T 8 * ! Y T ( T / o.#.#.#.O.o.o.O.O.o.O.o.O.o.o.o.o.o.o.o.O.o.o.o.o.o.o.o.o.",
"o.o.o.O.O.O.o.o.o.o.o.o.O.O.+.+.>.3.F , = = % 8 ! ! T Y # q R R T T Y ] #.#.#.+.+.o.+.o.o.o.o.o.o.o.o.o.o.o.o.o.o.o.o.o.o.o.o.o.",
"o.o.o.o.O.O.O.o.o.o.o.o.O.+.+.+.4.U.F l , : : % q ! Q ^ 7 # Y Y T T T d +.#.#.+.#.o.+.o.O.o.o.o.o.o.o.o.o.O.o.o.o.o.o.o.o.+.o.o.",
"O.o.o.o.o.o.o.o.o.o.o.O.o.O.+.,.E./.K B 8 : : & 7 T ^ ^ Q # # q Y T ( e ] #.+.+.+.+.o.+.o.O.o.o.O.o.o.O.o.o.o.o.+.o.o.+.o.o.o.o.",
"o.o.o.O.o.O.o.o.o.o.o.o.O.O.+.,.W.p.L.' e : : : * q ! ^ ^ 7 X w e ( T Y / #.,.+.+.+.+.o.O.O.O.o.o.o.o.o.o.o.O.o.o.o.o.o.o.o.o.+.",
"o.O.o.o.o.o.o.o.o.o.o.o.o.o.+.,.E.e.Z ) Q 0 & = 7 * Q ^ ^ Q % ` u q T T d ] ,.,.#.O.+.O.O.O.O.o.o.o.o.o.o.o.o.O.o.o.O.o.o.O.o.o.",
"o.o.o.o.o.o.o.o.o.o.o.o.+.o.+.+.R.I c ~ ! Y 7 : R 8 0 ! ^ ^ 0 p / 0 0 T U f ,.#.#.#.+.+.O.O.O.O.O.o.o.O.o.o.o.o.o.o.o.o.o.o.o.o.",
"o.o.o.o.o.o.o.o.o.o.o.O.o.+.+.+.4.H 6 / Q Q 0 q Q T * Y ! ^ ! q T e * U T d +.,.#.#.#.O.O.O.O.O.O.O.o.o.o.O.o.o.O.o.o.o.o.O.O.o.",
"o.o.o.O.o.o.O.o.o.O.O.o.o.o.+.+.<.Z 4 / Q ! R ^ ! ! 0 7 ! ! ! Y e T 7 7 q w ] #.#.#.#.#.+.O.O.O.o.O.o.o.o.o.o.O.o.o.O.o.o.o.o.o.",
"O.o.O.o.o.o.o.o.o.o.O.O.O.O.+.+.<.Z 3 u ! ! ! ! ! ! Q % Y ^ ! ! U Q T $ 7 * < M ] O.#.O.+.+.O.O.O.O.O.o.o.O.o.o.o.o.O.o.o.o.o.o.",
"o.o.o.o.o.o.o.O.o.o.O.o.o.#.+.+.>.$.6 , ! ! ! Y ! ! ! 7 7 ^ ! ! ! Q ^ 8 * 9 < > s f ..#.+.+.+.O.O.o.o.O.o.o.o.o.o.o. .o.o.O.O.o.",
"o.O.o.o.o.o.o.o.o.o.O.o.o.#.O.+.>.A 6 > u ! ! Q ! ! ^ T # Y ! ^ ! Q ! Q $ c f 8 * - s / +.+.+.+.O.o.O.O.o.o.o.o.o.o.o.o.o.o.o.o.",
"o.o.o.o.O.o.o.o.O.O.O.O.O.O.#.+.>...6 > 9 ! ! Q Q ! ^ ! * % Y ^ ! ! ^ ^ q h B e 7 * % 0 o.+.+.+.O.O.O.o.O.O.o.o.O.o.O.o.o.O.o.o.",
"o.O.o.o.o.o.o.o.o.O.O.o.+.+.O.,.,...3 > > R Q Q R ! ! ^ e O ; i Q ^ ! ^ ! , B ~ Y 8 = > ] ,.O.O.O.O.O.O.o.o.o.o.O.o.O.o.o.o.o.O.",
"o.o.o.o.O.o.o.O.o.o.O.O.+.+.+.O.,.o.r , 7 R ! Y U ! ^ ^ ! ; a.3.q Y ! ^ ^ U 2 ` ! R > > s >.>.,.+.O.O.O.O.O.o.o.o.o.o.o.o.o.o.o.",
"o.o.O.o.o.o.o.o.o.O.o.O.+.+.+.,.,.X.6 , : U R R q Q ^ ^ ! 3 /.&.R Q T ^ ! ! 7 R ^ ! 9 : < ..>.O.O.O.O.O.o.O.o.o.o.O.o.o.o.o.o.o.",
"o.o.o.o.o.o.o.o.O.O.O.O.+.+.+.#.>...t 2 > q Y U q R ^ ^ Q j H.) u ! ! ! ! ! Y 8 ! ^ 9 = > ' O.,.,.O.O.O.O.O.o.o.o.o.o.o.o.O.o.o.",
"O.o.o.o.o.o.o.o.o.o.O.O.+.+.#.,.>.o.6 2 : 9 U Y Y R ^ ^ T j &.i U Q ^ ! ! ! ! 0 q ^ e : : t O.>.O.O.O.O.O.O.O.o.o.o.o.o.o.O.o.o.",
"o.o.o.O.o.o.O.o.O.O.o.O.+.+.#.,.,...r , : 8 Y Y Y q ! ^ Y y | u q Q ! ! ! Q ! Q Y Q ! > : , ..O.O.,.,.O.O.O.O.o.o.o.o.o.o.o.o.o.",
"o.o.o.o.o.o.o.o.O.O.O.O.O.#.>.,.o.y : > > > U Q Q q R ^ R i ` R Y U ! ^ ! Q ! ! Q R ! q : > ' ,.,.O.O.O.o.o.O.o.o.o.o.o.o.o.o.o.",
"o.o.O.o.o.o.o.o.O.o.O.+.O.O.,.o.r & = = : : U Y R U q ! ! p ` R e q Q ^ ! Q Q ! Q Q Q Y : = t O.,.O.+.O.O.O.O.o.o.o.o.O.o.o.o.O.",
"O.o.o.o.o.o.o.o.O.O.o.O.O.,.O.t % & = & : : q Q U Y 0 T ^ ) $.) e e U ! ^ Q Q ! ! ! Q Q 7 & , [ ,.O.O.O.O.o.o.o.o.o.o.o.o.o.o.o.",
"o.o.o.o.o.o.O.o.O.o.O.+.+.O.m : 1 4 : : : 7 Y ^ 0 q q Y ^ ~ &.} u e e Q ! R Y ! Q ! ! ! q & : v >.O.>.O.O.O.o.o.o.o.o.o.o.o.o.o.",
"o.o.o.o.o.o.o.o.o.O.o.+.+.+.t 1 L j : 0 q q Y ! Y 8 Y q ! ^ ) | u e e U ! ! Y R ! Q ! ! R & & 4 O.O.O.O.O.o.o.o.o.o.o.o.o.o.o.o.",
"O.o.o.o...O.o.o.o.O.O.+.+.+.c 3 e.) q Y ! Y Y Q Q : q q U ! ! ) R e e e Y ! Y q Q Q ! Q Q 7 & : ] ,.O.O.O.o.o.o...o.o.o.o.o.o...",
"o.o.o.o.o.o.o.o.o.O.O.O.O.O.v 1 L n q Q ^ ! Q Q ! 8 7 q q R ! E R e q e u ! Q q Y Y Q Q Q 0 & : m ,.O.O.O.o.o.o.o.o.o.o.X.o.o.o.",
"X.o.o.o.o.o.o.o.o.o.O.O.#.O.c ; b p Y Q ^ ! ! Q Q q & Y 0 Y Q Q R e q q e Q Q 0 q R R Q R U : & t O.O.O.O.o.o.o.X.X.X.X.o.X.o.o.",
"o.o.o.o.o.o.o.o.o.o.O.+.O.#.c , = p e R ! ^ ^ Y R Y : q q q Q ! Y q e q q R Q q 8 Y Y Q U q : & > ..O.O.O.O.o.X.X.o.X.o.X.o.X.o.",
"X.o.o.o.o...o.o.o.o.O.O.+.+.N , = 4 W U ^ ^ ^ Y Q R 7 9 e q Q ! R R q q q U R U 9 q 8 8 U : 8 : * v ,.4.7.O.o.X.X.X.X.X...X.o.X.",
"o.o.o.X.X.o.X.X.o.o.o.o.#.#.] < ; O i Y Q ^ ^ Y Y Y % 0 q q Y Q ! ^ W j u q Y U 9 : s t e * 8 * * s <.].|.J.O.X.X.X.X.X.X.X.X.O.",
"o...o.X.X.X.X.o.@.o.o.@.o.#.o.w < > > E Y ~ ^ T q q % q q q e Y !  .^.^.{ e U q q 9 h ' 0 8 * * & t 9.@Xk./.*.@.G.K.*.o.X.X.X.X.",
"X.X.X.X.X.X.@.8.9.=.@.@.<.>.O.t < u & u Y Q ^ ^ 0 & 7 q q q 0 e Q H.$Xn.!.) 0 0 e e < / e * & * % s G. Xz.h.o.-.XXXX/.K.7.7.<.*.",
"o.o.X.X.@.A 9.#XOXa.@.9.(.G.#.s , p 8 9 Y Y ! ! Y # 0 Y Y q w d _ 3.}.k.x.{ u : 0 q * < w & . & , P XX).p.G v A l.l.M.XX]./.T.9.",
"X.X.X.X.X.X.9.#Xl.l.8.I.C.Q.>.t = 9 q q e Y Q ! Q % 8 U q w $._.~.r.L.N.n.L.r., * % = + & & & X a  XOXj.D S S P u.u.a.A.5.5.<.@.",
"o.X.X.X.X.X.*.T.j.c.U./.C.(.C 9 & > r q 9 e Y T ! 7 7 q q i Q.}.k.v.k.b.V.C.x.g o   X   & & & X a l.M.m.l.j.l.l.a.*.X.X.X.X.X.X.",
"..X.X.X.A X.X.7.h.b.I.i.V.p.s E % = y E e 7 q Y Y q % 0 9 z f.w.s.x.N.V.V.B.v.w.S @ + @ & < > w s A T.T.D.2.6.2.*.A X.X.X.X.O.X.",
"X.X.X.X.X.o.5.9.T.l.u.a L z y Y 8 1 r.L u > = 9 Y U 7 % 3 g.z.N.N.v.v.c.j.c.f.h.S.O.[ ..] f [ [ @.o.@.@.O.o.X.X.X.o.X.X.X.X.X.O.",
"@.5.7.7.K.`.+X$XXXP 5 O + O & & 2 q.x.r.4 :   & w 9 - < V u.i.P.S.Z.6.6.J I A #.O.O.O.O.O.O.O.O.o.o.o.o.o.X.X.X.X.X.X.X.X.X.X.o.",
"-.K./.].XXOX|.M.d.x a 5 < < a s e.[..XK , o   - s s f I h.Q.5.@.o.%.o.X.A X.o.@.o.O.O.O.O.O.O.O.o.o.o.o.o.X.o.X.o.X.o.X.o.o.o.o.",
"@.@.-.K./.a.J.Z.J *.O.*.o.o.X.@.U.).~.V ; < v =.7.9.T.n.z.m./.6.i.a.=.X.X.X.o.o.O.o.O.O.O.O.O.O.o.o.o.o.o.X...X.X.X.o.o.o.o.X.o.",
"X.o.A o.*.@.*.X.A o.X.X.o.o.o.o.<.7.<.A ..o.>.F.U.I.).{.n.n.).h.P.Z.*.X.X.X.X.o.X.o.o.O.O.O.O.o.o.o.o.o.o.o.o.o.o.o.o.X.o.X.o.o.",
"X.o.X.X.X.X.X...X.X.X.o.o.o.o.o.O.X.O.O.O.O.O.@.*.<.2.5.7.5.5.-.@.X.X.X.X.X.o.o.o.O.o.O.O.O.o.O.o.o.o.o...o.o.o.o.o.o.o.X.X.o.o.",
"o.X.X.X.o.X.X.o.X.X.o.o.o.o.o.o.O.O.O.O.O.O.O.O.O.o.o.O.X.X.X.X.X.X.X.X.X.o.X.X.X.o.o.o.o.o.o.o.o.O.o.o.o.o.o.X.o.X.o.o.o.o.o.o.",
"o.o.o.X.o.X.X.X.o.o.o.X.o.o.o.o.o.O.O.O.O.o.O.o.o.o.o.X.X.X.X.X.X.X.X.X.X.X.o.o.o.o.o.o.o.o.o.o.o.o.o.o.o.o.o.o.o.o.o.o.o.o.o.o.",
"X.o.o.o.X.o.o.o.X.o.o.o.o.o.o.o.O.X.O.o.o.o.o.o.o.o.o.o.o.X.X.X.X.X.o.X.o.X.o.o.X.o.o.o.O.o.o.o.o.o.o.o.o.X.o.o.o.X.o.o.o.O.o.o."
};
