/* XPM */
static char *d03af366982945fe9096c6a679abfc454w6RMXduM0U0SfAL[] = {
/* columns rows colors chars-per-pixel */
"64 64 202 2 ",
"   c #060B0F",
".  c #070E13",
"X  c #0D1215",
"o  c #0D151A",
"O  c #101316",
"+  c #111619",
"@  c #151A1D",
"#  c #191A1D",
"$  c #0E1821",
"%  c #0D1720",
"&  c #131D26",
"*  c #1A1E23",
"=  c #131F2B",
"-  c #211D24",
";  c #172123",
":  c #1C2325",
">  c #16222B",
",  c #1D252A",
"<  c #1D292C",
"1  c #1A2631",
"2  c #1F2A32",
"3  c #1E2D3A",
"4  c #152330",
"5  c #1C3134",
"6  c #212227",
"7  c #23252A",
"8  c #232A2D",
"9  c #29292E",
"0  c #252D31",
"q  c #2A2D33",
"w  c #262E3B",
"e  c #302F37",
"r  c #273235",
"t  c #2A3235",
"y  c #23303D",
"u  c #2D353A",
"i  c #2E383A",
"p  c #263B3E",
"a  c #34343B",
"s  c #323A3D",
"d  c #35343A",
"f  c #2C3743",
"g  c #293D41",
"h  c #2D3A4B",
"j  c #263E40",
"k  c #333745",
"l  c #353D43",
"z  c #3A3B44",
"x  c #343D4A",
"c  c #393C4A",
"v  c #343F51",
"b  c #403F47",
"n  c #264144",
"m  c #2B4246",
"M  c #294649",
"N  c #2B4C4E",
"B  c #374142",
"V  c #3A4345",
"C  c #3C464A",
"Z  c #364D4E",
"A  c #3F484B",
"S  c #334152",
"D  c #3B4351",
"F  c #3E4954",
"G  c #39475A",
"H  c #3D4A5A",
"J  c #344B57",
"K  c #2D5355",
"L  c #32565C",
"P  c #36595E",
"I  c #395B5E",
"U  c #3D4D60",
"Y  c #3A5E62",
"T  c #3B6165",
"R  c #43434D",
"E  c #424B4D",
"W  c #444E54",
"Q  c #434C5D",
"!  c #414551",
"~  c #544F55",
"^  c #475054",
"/  c #4A5354",
"(  c #4C5558",
")  c #4F595B",
"_  c #545B5D",
"`  c #56585C",
"'  c #434F61",
"]  c #455263",
"[  c #4A5364",
"{  c #445369",
"}  c #4C566B",
"|  c #4D5A6C",
" . c #4C5A65",
".. c #565E60",
"X. c #5A5E63",
"o. c #525E6D",
"O. c #4F5E74",
"+. c #515D73",
"@. c #505E78",
"#. c #446366",
"$. c #4C6265",
"%. c #496568",
"&. c #576162",
"*. c #5C6466",
"=. c #566275",
"-. c #54637B",
";. c #59687F",
":. c #58677C",
">. c #5B777A",
",. c #606566",
"<. c #63656A",
"1. c #636B6D",
"2. c #686E6E",
"3. c #656E73",
"4. c #667171",
"5. c #6B7374",
"6. c #6F7877",
"7. c #66727D",
"8. c #6B767C",
"9. c #60787A",
"0. c #6E797A",
"q. c #717476",
"w. c #737B7C",
"e. c #787E7F",
"r. c #707578",
"t. c #7B847F",
"y. c #566681",
"u. c #576983",
"i. c #5D6D87",
"p. c #5E6D89",
"a. c #586784",
"s. c #5F718A",
"d. c #606F86",
"f. c #606F8A",
"g. c #637285",
"h. c #697683",
"j. c #6F7881",
"k. c #61718C",
"l. c #6C7A8D",
"z. c #657D81",
"x. c #737E82",
"c. c #717E8F",
"v. c #637491",
"b. c #6F7D93",
"n. c #737F95",
"m. c #678184",
"M. c #778282",
"N. c #7C8383",
"B. c #7D888A",
"V. c #768292",
"C. c #7B8592",
"Z. c #7B8798",
"A. c #838789",
"S. c #838B8B",
"D. c #898D8F",
"F. c #818286",
"G. c #87908F",
"H. c #868E93",
"J. c #8B8F90",
"K. c #879195",
"L. c #8C9394",
"P. c #879099",
"I. c #8C949A",
"U. c #919696",
"Y. c #929898",
"T. c #959B9C",
"R. c #999F9F",
"E. c #939898",
"W. c #97A09F",
"Q. c #9CA09F",
"!. c #9CA19E",
"~. c #8E99A7",
"^. c #949DAB",
"/. c #95A2A3",
"(. c #9BA1A1",
"). c #9CA2A2",
"_. c #9BA9AA",
"`. c #9FA5B1",
"'. c #A1A4A4",
"]. c #A4ABAC",
"[. c #A8AFB7",
"{. c #ADB6BA",
"}. c #ABB5B7",
"|. c #B2B7BA",
" X c #B4BBBD",
".X c #BABCBC",
"XX c #B9BEC1",
"oX c #BCC5C4",
"OX c #C3C6C5",
"+X c #C4CACB",
"@X c #CACDCD",
"#X c #C4C8C7",
"$X c #CED0CF",
"%X c #CDD2D2",
"&X c #D4D5D4",
"*X c #D6D8D7",
"=X c #D9D9D6",
"-X c #DFDFDD",
";X c #D3D9D9",
":X c #E2E1DF",
">X c #E7E9E8",
",X c #E2E4E1",
/* pixels */
"i.i.i.i.i.i.i.i.i.i.i.i.i.i.i.i.i.i.i.i.i.i.i.i.i.i.i.i.i.i.i.i.f.i.i.i.i.i.p.i.i.i.i.i.i.i.i.i.i.i.i.i.i.i.s.i.i.i.i.f.i.i.i.i.",
"i.i.i.i.i.i.i.i.i.i.i.i.i.i.i.i.s.i.i.i.i.i.i.i.i.i.i.i.i.i.i.i.i.i.i.i.i.i.i.i.i.i.i.i.i.i.i.i.i.i.i.i.i.i.i.i.i.i.i.i.i.i.i.i.",
"i.i.i.i.i.i.i.i.f.i.i.i.i.i.i.i.i.i.i.i.i.i.i.i.i.i.i.i.i.i.i.i.i.i.i.i.i.i.p.i.i.i.i.i.i.i.i.i.i.i.i.i.i.i.i.i.i.i.i.i.i.i.i.i.",
"i.i.i.i.i.i.i.i.i.i.i.i.i.i.i.i.i.i.i.i.i.i.i.i.i.i.i.f.i.i.i.i.i.i.i.i.i.p.i.i.i.i.i.i.i.s.i.i.i.i.i.i.i.i.i.i.i.i.i.i.i.i.i.i.",
"i.i.i.i.i.i.s.i.i.f.i.i.i.s.i.i.i.i.i.i.i.i.i.i.i.i.i.s.i.i.i.i.i.i.i.p.p.i.p.i.i.i.i.i.i.i.i.i.i.i.i.i.i.i.i.i.i.i.i.i.i.i.i.i.",
"i.i.i.i.i.i.i.i.i.i.i.i.i.i.i.i.i.i.i.i.i.i.i.i.i.i.i.i.i.i.i.i.i.i.i.i.i.i.i.i.i.i.i.i.i.i.i.i.i.i.i.i.i.i.i.i.i.i.i.i.i.i.i.i.",
"i.i.i.i.i.i.i.i.i.i.i.i.i.i.i.i.i.i.i.i.i.i.i.i.i.i.i.i.i.i.i.i.i.i.i.i.i.i.p.i.i.i.i.i.i.i.i.i.i.i.i.i.i.i.i.i.i.i.s.i.i.i.i.i.",
"i.i.i.i.i.i.i.i.i.i.i.i.i.i.i.i.i.f.i.i.i.i.i.i.i.i.i.i.i.i.i.i.i.i.i.i.i.i.i.i.i.i.s.i.i.i.i.i.i.i.s.i.i.i.i.i.i.i.i.i.i.i.i.i.",
"i.i.i.f.i.i.i.i.i.i.i.i.i.i.i.i.i.i.i.i.i.i.i.i.i.i.i.i.i.i.i.i.i.i.i.i.i.i.i.i.i.i.i.i.i.i.i.i.i.p.i.i.i.i.i.i.i.i.i.i.i.i.i.i.",
"i.i.i.i.i.i.i.i.i.i.i.i.i.i.i.i.i.i.i.i.i.i.i.i.i.f.i.i.i.i.i.i.i.g.i.i.i.i.i.f.i.i.i.i.i.i.i.i.i.i.i.i.i.i.i.i.i.i.i.i.i.i.i.i.",
"i.i.i.i.i.i.i.i.i.i.i.i.i.i.s.i.i.i.i.i.s.i.i.i.i.i.i.i.i.i.i.i.i.i.i.i.i.i.i.i.i.i.i.i.i.i.i.i.f.i.i.i.i.i.i.i.i.i.i.i.i.i.i.i.",
"i.i.i.i.i.i.i.i.i.i.i.i.i.i.i.i.i.i.i.i.i.i.i.i.i.i.i.i.i.i.i.i.i.i.i.i.p.i.i.i.i.i.i.i.i.i.i.g.i.i.i.i.i.i.i.i.f.i.i.i.i.i.i.i.",
"i.i.i.i.i.i.i.i.i.i.i.i.i.i.i.i.i.i.i.i.i.i.i.i.i.i.i.i.i.i.i.i.i.i.d.a.a.i.u.i.i.i.i.i.i.i.i.u.i.k.p.i.i.i.i.i.i.i.i.i.i.i.i.i.",
"i.i.i.i.i.i.s.i.i.i.i.i.i.i.i.i.i.i.i.f.i.i.i.i.i.i.i.i.i.i.i.i.i.i.i.V.P.H.L.V.p.i.i.i.i.u.C.I.j.F 3.d.p.i.u.i.f.i.i.i.i.i.s.i.",
"i.i.i.i.i.i.i.i.i.i.i.i.i.i.i.i.i.i.i.i.i.i.i.i.i.i.i.i.i.i.i.i.u.l.I.T.Q.R.'.U.b.u.:.W W C ( *.Y.3.E 4.7.g.i.i.i.i.i.i.i.i.i.i.",
"i.i.i.i.i.i.i.i.i.i.i.i.f.i.i.i.i.i.i.i.i.i.i.i.s.i.i.i.f.i.i.i.i.V.^.R.T.'.r.B | ^ l E i s i u *.).'.x.0.7.i.i.i.i.i.i.i.i.i.i.",
"i.i.i.i.i.u.i.i.i.i.i.i.i.i.i.i.i.i.i.i.i.i.i.i.i.i.i.i.i.i.i.u.h.!.Q.Q.).w.V i B A ( s @ 8 B : *.T.>X3./ M.g.i.i.i.i.i.i.i.i.i.",
"i.i.k.V.u.b.l.u.i.i.i.i.i.i.i.i.i.i.i.i.i.i.i.i.i.i.i.i.i.i.i.g.0.S.G.G.3.s s 8 i V G.&.@ , t : ( !..X/ 8 / $.s.i.i.i.i.i.i.i.i.",
"i.i.g.B.P.S.h.i.i.i.i.p.i.i.i.i.i.i.i.i.i.i.i.i.i.i.i.i.i.i.i.5.0.*.s R q 8 q C ( i t.!.*.: q 8 V ).Y.A r 7 H v.i.i.i.i.i.i.i.i.",
"i.C.L.8.N.h.-.i.s.i.i.i.i.i.i.i.i.i.i.i.i.i.i.i.i.i.i.i.i.i.i.h.^ C s u u l 4.4.A i ,.S.J.*.* 8 t s a t t i , Q v.u.i.i.i.i.f.i.",
"i.i.0.0.5.D 3 | -.s.s.i.p.i.i.i.i.i.f.i.i.i.i.i.i.i.i.i.i.i.i.+.) _ ....*.1.8 A C i t *.A.!.E O 8 V ( s t , + s =.i.i.i.i.i.i.i.",
"i.l.h.e.( . > > f { -.v.p.i.i.i.i.i.i.i.i.i.i.i.i.i.i.i.i.s.u.u : ; * @ O O : u V A s t ,.S.E.E X , 8 t 7 + i A C i.i.i.i.i.i.i.",
"u.V.k.g.=.G G > & > h U a.i.p.i.i.i.i.i.i.i.i.i.i.i.i.i.i.-.E A E B B 0 @ @ 8 8 i C E u q *.U.E.X..._ s + 7 i V A | s.i.i.i.i.i.",
"i.a.i.p.i.k.k.O.G & > > S i.i.k.i.i.i.i.i.i.i.i.i.i.i.i.k.o.B C V A E s : s s 8 t i V A i q 1.S.!.L.N.V : 7 0 B A C | p.p.i.i.i.",
"i.s.i.i.i.i.i.k.i.-.S , & 3 H u.i.s.i.u.i.i.i.i.i.p.k.P.I.T.1.B A B t 0 : q A s 8 t u V A u 9 ,.q.2.C i | 8 : r V B W f.i.i.i.p.",
"i.i.i.i.i.i.i.i.i.i.i.u.h , & 3 { -.k.k.u.p.i.i.i.i.L.Q./.(.).1.t 7 8 i s , 0 A s t t i A E s i _ E q 0 i.O.t : 0 r i g.i.i.p.p.",
"i.i.i.i.i.i.i.i.i.i.i.i.k.u.3 $ > y { O.v.p.p.i.i.i.P.!.R.Y.).3.u x | H 0 B , 8 C 8 8 0 u B B i 8 8 7 c ;.k.^ 8 i A B 6.~.i.i.i.",
"i.i.i.i.i.i.i.i.i.i.i.i.i.i.-.H 1 & & h H -.s.i.i.u.P.).R.(.Y.B 0 s.v.D 6 t s 8 ; + 7 8 7 , 7 7 6 B ] u.s.k.Q s E A C ^ D.l.u.i.",
"i.i.i.i.i.i.i.i.i.i.i.i.i.i.i.v.-.U > & = h y.i.f.i.x.N.W.L.w.B t u.k.F 6 6 t B 7 @ ; 9 t t ] +. .-.v.p.i.s.Q 8 C C E r 5.b.u.i.",
"i.i.i.i.i.i.i.s.i.i.i.i.i.i.p.p.f.i.y.H , 1 3 G u.i.h.0.0.t.( 7 | k. .t q t 8 ) L.A.A.t.S.6.i.k.k.s.u.p.i.k.H 8 i C A s e.l.u.i.",
"i.i.i.i.i.i.i.i.i.i.i.i.i.i.i.i.i.i.f.i.p.S w > , U @.7.5.M.A u u.k.{ < t 8 8 0 / M.S.  ` &.G s.i.p.p.p.i.s.H 7 8 t i ^ E.l.p.i.",
"i.i.i.i.i.i.i.i.i.i.i.i.i.i.i.i.i.i.i.i.p.s.a.v y > 1 4.0.w.E S k.d.B n N M t m p 3.U.E _ $.< ] g.u.p.p.p.k.Q 8 8 7 8 ( S.k.i.i.",
"i.i.i.i.i.i.i.i.i.i.i.i.i.i.i.i.i.i.i.i.i.i.u.l.y.2 o V 6.e.E X D u . ; M j M T Y %.9.z.$.Z 2 : ] k.u.p.u.k.Q 7 8 6 : / g.i.i.i.",
"i.i.i.i.i.i.i.i.i.i.i.i.i.i.i.i.i.i.i.i.i.i.i.i.p.y.{ 0 4.M.B * 7 & 8 @ ; 5 j T P P L L N < , , , ] k.i.p.=.8 : 8 s E 4.g.i.i.p.",
"i.i.i.i.i.i.i.i.f.i.i.i.i.i.i.i.i.i.i.i.i.i.i.i.a.s.f.u.x.E : 8 : r 0 : # Z #.K P Y P T K ; ; 7 , , Q k.O.i 8 , ; 7 ^ 9.i.i.i.i.",
"i.i.f.i.i.i.i.i.i.i.i.i.i.i.i.i.i.i.i.i.i.i.i.p.p.p.i.d.E : 7 : 7 3 2 2 , OX X>.#.K I T p O # , : , , Q q 0 s V A B @ F k.i.i.i.",
"i.i.s.i.i.i.i.i.i.i.i.i.s.i.i.i.i.i.i.i.i.i.p.i.p.i.i.u.u : : 0 & o > 4 l '.%X:X/.m.P P p O @ * 6 , , 7 F 0 7 s E C C  .i.p.i.i.",
"i.i.i.i.i.i.i.i.i.i.i.i.i.i.i.i.i.i.i.i.i.p.i.i.i.i.i.s.u.[ u : 6 6 % u 6.r.L.].%X=X_.m.J 2 X @ : , : 7 B q : r s E B  .k.p.i.p.",
"i.i.i.i.i.i.i.i.i.i.i.i.i.i.i.i.i.i.i.i.i.i.i.i.i.i.i.u.f.k.y.| q + &.E.q.6.2.w.S..X;XXXXXC., X o 8 s e B Q o 7 t t F i.i.i.u.i.",
"i.i.i.i.i.i.i.i.s.i.i.i.i.i.i.i.i.i.i.i.i.i.i.i.i.i.i.i.i.u.f.i.9 * F.*X.XA.t.w.r.e.B.].#X;X.Xc 6 q b b R s.H q t l u.i.i.i.i.f.",
"i.i.i.i.i.i.i.i.i.i.i.i.i.i.i.i.i.i.i.i.i.i.i.i.f.i.i.i.i.i.i.i.q 9 X.{.+XOX|.^.L.2.q.5.U..X@X@XT.<.R q k i.i.u.u.i.k.i.i.i.i.i.",
"i.i.i.i.i.i.f.i.i.i.i.i.i.i.i.i.i.i.i.i.i.i.i.i.i.i.i.i.i.i.i.i.q - 9 ..D.&X+X{.].e.L.q.q.5.S.).@X,X'.r.a a.f.i.i.i.i.i.i.i.i.i.",
"i.i.i.i.i.i.i.i.i.i.i.i.i.i.i.i.i.i.i.i.i.i.i.i.p.i.i.i.i.i.i.f.z - - 7 - X.x.@X&X.X$X!.5.w.q.w.E.'.+XoXH.Z.y.p.i.i.i.i.i.i.i.i.",
"i.i.i.i.i.i.i.i.i.i.i.i.i.f.i.i.i.i.i.i.i.i.i.i.i.i.i.i.i.i.i.u.b k - 7 - - @.Z.[.&XoXXXL.w.r.5.A.OX#X#X%X%X~.a.i.i.i.i.i.i.i.i.",
"p.i.p.i.i.i.i.i.i.i.i.i.i.i.i.i.i.i.i.i.s.i.i.i.i.i.i.i.i.i.k.b a 9 7 - 9 y.f.y.p.l.}.+X$XOXJ.A.@X&X$X*X%X*X^.a.f.i.i.i.i.i.i.i.",
"i.i.i.i.i.i.i.i.i.i.i.i.i.i.i.i.i.i.i.i.i.i.i.i.i.i.i.i.i.a.v.! - 9 e 9 @.f.a.f.p.u.i.V.+X-X$X}. X$X=X XXX/.a.i.i.i.i.i.i.i.i.i.",
"i.p.p.i.p.i.i.i.i.i.i.i.i.i.i.i.i.i.i.i.i.i.i.i.i.i.i.i.i.p.+.e - 9 * ' v.a.f.i.p.i.p.;.Z.J.OX&X[.^.].v.y.a.i.i.i.i.i.i.i.i.i.i.",
"i.i.i.i.i.i.i.p.s.i.i.i.i.i.i.f.i.i.i.i.i.i.i.i.i.i.i.i.i.v.c - 9 - k @.f.f.i.i.p.i.i.i.s.h ~ 5.X.} a.a.g.p.i.i.i.i.i.i.i.i.i.i.",
"i.i.i.i.i.p.i.p.i.i.i.i.i.i.i.i.i.i.i.i.i.i.i.i.i.i.i.i.k.o.q d b d [ v.i.i.p.u.i.p.p.k.} e q e k b +.f.i.i.i.i.i.i.i.i.i.i.i.i.",
"i.i.i.i.i.i.i.i.i.i.i.i.i.i.p.i.s.i.i.i.i.i.f.i.i.i.i.i.v.Q - e d d d ' i.i.i.i.u.i.i.v.Q - d d k d d =.f.i.i.i.i.i.i.i.i.i.i.i.",
"i.i.i.p.i.i.g.i.i.p.i.i.i.i.i.i.i.i.i.i.i.i.i.i.i.i.i.i.s.| k x c c z k @.f.i.i.i.i.p.p.} z c c z c z @.f.u.i.i.i.i.i.i.i.i.i.i.",
"i.i.i.i.i.i.i.i.i.i.i.i.i.i.i.i.i.i.i.i.i.i.i.i.i.i.i.i.i.k.k.k.f.f.k.f.f.d.p.p.i.i.p.i.i.k.s.s.v.k.k.f.i.i.i.i.i.i.i.i.i.i.i.i.",
"i.i.i.i.i.i.i.i.i.i.i.i.i.i.i.i.i.i.i.i.i.i.i.i.i.i.i.i.i.i.i.u.p.p.i.a.i.i.i.i.i.p.i.i.i.i.i.i.p.p.i.i.i.i.i.i.i.i.i.i.f.i.i.i.",
"i.i.i.i.i.i.i.i.i.i.p.i.i.i.p.i.i.i.i.i.i.i.f.i.i.i.i.i.i.i.i.i.i.i.d.f.i.i.i.i.i.i.i.i.i.d.i.i.i.p.i.p.i.i.i.i.i.i.i.i.i.i.i.i.",
"i.i.i.i.i.i.p.i.i.i.i.i.i.i.i.i.i.i.i.i.i.i.i.i.i.i.i.i.i.i.i.i.i.i.i.p.i.i.p.p.i.i.i.i.i.i.i.i.i.i.i.p.i.i.i.i.i.i.i.i.i.i.i.i.",
"i.i.p.i.i.i.i.i.i.i.i.i.i.i.i.i.i.i.i.i.i.i.i.i.i.i.i.i.i.i.i.i.i.i.i.i.i.p.i.f.i.i.i.i.i.i.i.i.i.i.i.u.i.i.i.i.i.i.i.i.i.i.i.i.",
"i.i.i.i.i.i.i.i.i.i.i.i.i.i.i.i.i.i.i.i.i.i.i.i.i.i.i.i.i.i.i.i.i.i.i.i.i.i.i.p.i.i.i.i.i.i.i.i.i.i.i.s.i.i.i.i.i.i.i.i.i.i.i.i.",
"i.i.i.p.i.i.i.p.i.i.i.i.i.i.i.p.i.i.i.i.i.i.i.i.i.i.i.i.i.i.i.i.i.i.i.i.i.i.i.i.i.i.i.i.i.i.i.i.i.i.i.i.i.i.i.i.i.i.i.i.i.i.i.i.",
"i.i.i.i.i.i.i.i.i.p.i.i.i.i.i.i.i.i.i.i.i.i.i.i.i.i.i.i.f.i.i.i.i.i.i.i.i.i.i.i.i.i.i.i.i.f.i.i.i.i.i.i.i.i.i.i.f.i.i.i.i.i.i.i.",
"i.i.i.i.i.i.i.i.i.i.i.i.i.i.i.i.i.i.f.i.i.i.i.i.i.i.i.i.i.i.i.i.p.i.i.i.i.i.i.i.i.i.i.i.i.i.i.i.i.i.i.i.i.i.i.i.i.i.i.i.i.i.i.i.",
"i.i.p.i.i.i.i.i.i.p.i.i.i.s.i.i.i.i.i.i.i.i.i.i.i.i.i.i.i.i.p.i.i.i.i.i.i.d.p.i.i.s.i.i.i.i.i.i.i.i.i.i.i.f.i.i.i.i.i.i.i.i.i.i.",
"i.i.i.i.i.i.i.i.i.g.i.i.i.i.i.i.i.i.i.i.i.i.i.i.i.i.i.i.i.i.i.i.i.i.i.i.i.i.i.i.i.i.i.i.i.i.i.i.i.i.i.i.i.i.i.i.i.i.i.i.i.i.f.i.",
"i.i.i.i.i.i.i.i.i.i.i.i.i.i.i.i.i.i.i.i.i.i.i.i.i.i.i.i.i.i.i.i.p.i.i.i.i.i.i.i.i.i.i.i.i.i.i.i.i.i.i.i.i.i.i.i.i.i.i.i.i.i.i.i.",
"i.i.i.i.i.p.i.i.i.i.i.i.i.i.i.i.i.i.i.i.i.i.i.i.f.i.i.i.i.i.i.i.i.i.i.i.i.p.i.i.i.i.i.i.i.i.f.i.i.i.i.i.i.i.i.i.i.i.i.i.i.i.i.i."
};
